<svg id="Calque_1" data-name="Calque 1" xmlns="http://www.w3.org/2000/svg" viewBox="0 0 311.48 296.03"><path d="M101.81,138.39a14.28,14.28,0,0,0-6-2,70.61,70.61,0,0,0-8.49-.46c-3.74,0-6.64,1.09-8.76,3.27s-3.2,6-3.2,11.36v15h31.42v-15a19.66,19.66,0,0,0-1.26-7.69A9.34,9.34,0,0,0,101.81,138.39Z"/><path d="M160.69,130.76a15.47,15.47,0,0,0-6.24-2.78,35,35,0,0,0-7.63-.79,40.93,40.93,0,0,0-8.4.79,15.85,15.85,0,0,0-6.44,2.78,12.85,12.85,0,0,0-4.13,5.58,24.17,24.17,0,0,0-1.45,9.15v20h40.08v-20a22.73,22.73,0,0,0-1.56-9.15A13.44,13.44,0,0,0,160.69,130.76Z"/><path d="M0,0V296H311.48V0ZM191.52,218.7H171.3c0-.53,0-1.06,0-1.55q-.3-11.72-5.11-14.62a6.3,6.3,0,0,0-1.73-.73,7.48,7.48,0,0,0-2-.25H79.38a7.48,7.48,0,0,0-2,.25,6.53,6.53,0,0,0-3.22,1.94,11,11,0,0,0-2.21,3.9,21.61,21.61,0,0,0-.72,2.68,38.9,38.9,0,0,0-.68,6.83c0,.49,0,1,0,1.55H48.35v-1.55h0v-28H191.52Zm0-42H48.35v-40a181.21,181.21,0,0,1,1.16-21.58,40.08,40.08,0,0,1,4.92-15.79A23.51,23.51,0,0,1,65.3,89.62c4.76-2.18,11-3.27,18.9-3.27a35.81,35.81,0,0,1,12.79,2,24.33,24.33,0,0,1,8.89,5.69,27.89,27.89,0,0,1,5.68,8.75,48.33,48.33,0,0,1,3.07,11.1q1.55-17.54,9.85-27.25t24.45-9.75c8.23,0,15.07.92,20.52,2.81A26.64,26.64,0,0,1,182.57,89q4.91,6.44,6.94,17a139.82,139.82,0,0,1,2,25.9Zm34.34-.69H203.75V129.85h22.11Zm37.46,14.85H237.13V111.16h26.19Z"/></svg>