<svg id="Calque_1" data-name="Calque 1" xmlns="http://www.w3.org/2000/svg" viewBox="0 0 1099.96 311.6"><path d="M549.86.05q243.74,0,487.48,0C1064.18,0,1084,11.16,1095,35.86a55.69,55.69,0,0,1,4.72,21.72q.54,98.24.15,196.49c-.1,31.07-25.9,56.78-57,57.47-1.5,0-3,0-4.5,0q-488.23,0-976.47,0c-24.93,0-43.57-10.34-55.47-32.36-4.53-8.38-6.31-17.51-6.32-27C0,188-.08,123.62.1,59.29.19,25.83,25.16.93,58.87.07c2.5-.06,5,0,7.5,0Zm.48,20.53H60.41c-23.32,0-39.66,16.22-39.68,39.5q-.07,96,0,192a36.33,36.33,0,0,0,.75,8.41c4.67,19.56,19.14,30.67,39.94,30.68q89.75,0,179.48,0,398.19,0,796.39.16c24.19,0,42.35-17,42.11-41.56-.62-63-.19-126-.27-189A42.07,42.07,0,0,0,1077.89,49c-5.46-18.34-19.3-28.38-38.61-28.38Z"/><path d="M56.11,55.93a8.84,8.84,0,0,1,1.8-.43c23.46.3,47,.16,70.39,1.11,15.06.61,28.32,6.43,34.8,21.1,7.2,16.3,7.77,33.55,3.19,50.76-1.71,6.42-6.94,9.95-12.89,12.3-2.91,1.15-5.9,2.11-9.31,3.31,1.41.39,2.35.63,3.28.91,16.09,4.9,23.6,13.29,24.32,30.08a360.6,360.6,0,0,1-.85,44.83c-1.38,16.83-10.88,25.89-28,26.61-24.11,1-48.27.86-72.41,1.18-4.63.06-9.27,0-14.29,0Zm50.07,158.36c10,.54,14.85-2,15.16-8.84.53-12,.42-24-.06-35.95-.1-2.34-2.6-5.53-4.83-6.61-2.9-1.39-6.63-1.07-10.27-1.52Zm0-83.95c12.71,1.13,15.19-.94,15.51-12.86.15-5.49.21-11,0-16.46-.4-10.16-5.12-13.7-15.51-11.74Z"/><path d="M924.08,152c0,16.65.54,33.32-.12,49.94-1.15,28.9-19.55,47.43-48.48,49.57-12.54.94-25,.31-36.74-4.85-18.23-8-28.32-22.5-28.76-42-.79-35.29-.72-70.61-.06-105.9.44-23.33,16-40.43,39.07-45.44,14.28-3.11,28.37-2.87,42.28,1.94,19.55,6.76,31.61,22.62,32.66,43.33.45,9,.7,18,.84,27,.15,8.83,0,17.66,0,26.48Zm-65.06-1c0,1.67,0,3.33,0,5,.28,18.31.53,36.63.92,54.94.08,4.07,1.21,7.71,6.38,7.87,4.64.14,6.74-1.85,7.28-7.52s1-11.29,1.06-16.94q.15-45,0-90a138.48,138.48,0,0,0-1.07-13.93c-.36-3.48-2-6-5.9-6.16-4.16-.19-6.79,1.75-7.36,5.82a114.08,114.08,0,0,0-1.26,14.4C858.92,120.08,859,135.58,859,151.07Z"/><path d="M395.94,151.76c0,16.31.19,32.64,0,49-.45,31.48-21.19,48.67-49.87,50.88-12.7,1-25.26-.05-37-5.67-16.88-8-26.58-21.68-27-40q-1.25-54.17-.06-108.36c.46-22.26,16.29-39.37,38.06-44.12,14.44-3.15,28.72-3.12,42.79,1.73,20.24,7,32.15,23.07,33.07,44.62q.56,13,.77,26c.13,8.66,0,17.32,0,26ZM345.81,154h.67c0-16.49.07-33-.05-49.46a118.28,118.28,0,0,0-1-13.94C345,87,343.23,84.31,339,84.38s-6.49,2.28-7,6.32A119.28,119.28,0,0,0,331,103.61q-.14,47,0,93.93c0,5.31.58,10.63,1.09,15.92.35,3.48,2.5,5.32,6,5.41,3.34.09,5.93-1,6.7-4.6a31.07,31.07,0,0,0,1-6.39C345.84,189.91,345.81,171.93,345.81,154Z"/><path d="M481.38,170.82h51c-.77,12.09-1.61,23.8-2.22,35.52-1.16,22-13.91,35.36-33.59,41.86-20.13,6.65-40.48,5.34-59.66-4.33-15.1-7.61-21.53-21.41-22-37.27-1-35.28-1.34-70.6-.93-105.89.36-30.9,22.53-44.91,44.33-48.23,16.81-2.56,33.14-1.25,48.53,6.8,13.6,7.11,21.54,18.31,22.88,33.48,1.23,14.07,1.41,28.24,2,42.36.12,2.51.07,4.55-3.51,4.51-14.83-.14-29.65-.07-44.48-.11a13.71,13.71,0,0,1-2.44-.56c0-5.32.07-10.61,0-15.9q-.24-15.24-.65-30.47c-.13-4.38-1.53-7.87-6.78-8.19-5.65-.35-8.36,1.51-9.4,7.23a53.08,53.08,0,0,0-.67,9.44q0,51.48,0,103a43.83,43.83,0,0,0,.33,6.49c.91,6.2,3.26,8.43,8.48,8.36,5-.08,7.66-2.7,7.91-8.86.45-11,.54-22,.77-33C481.41,175.09,481.38,173.12,481.38,170.82Z"/><path d="M570,178.61h18.24c8,0,16,.14,24-.07,3.47-.09,4.67,1,4.59,4.54-.18,8.49-.08,17,.08,25.49.13,6.82,2.28,9.75,7.06,10.24,5.56.58,8.65-1.93,10.39-8.43,3.57-13.34-1.19-27.71-12.25-35.69-10.79-7.79-21.77-15.33-32.78-22.81-11.95-8.11-18.87-19.51-19.94-33.61a157.91,157.91,0,0,1,.85-33.81c2.26-16.07,13.41-25.35,28.29-29.69,20-5.82,39.84-5,59,3.64,11.24,5.08,18.49,13.45,19.55,26.24.78,9.4,1.45,18.81,2.21,28.69H631.72c0-1.84,0-3.77,0-5.68-.17-5.66-.32-11.31-.6-17-.17-3.61-2-5.94-5.76-6.32a7.61,7.61,0,0,0-8.19,4.44c-4.64,9.34-1.11,25,7.49,31.08,10.08,7.06,20.42,13.76,30.84,20.32,17.64,11.1,26.78,27,26.86,47.74a251.54,251.54,0,0,1-1.92,33.27c-1.28,9.85-7.68,17-16.36,21.47-24.46,12.63-49.19,12.78-73.65.1a33.59,33.59,0,0,1-17.75-23C569.53,206.41,569.4,192.87,570,178.61Z"/><path d="M943.24,55.41c11.75,0,23.06-.26,34.36.07,14.27.42,28.64.48,42.77,2.24,18.57,2.31,28.88,14.3,29.54,33.19.54,15.77.48,31.58.18,47.37-.39,20.32-12.28,28.94-31.32,31.3-8.35,1-16.83,1-25.65,1.52v76.21H943.24Zm50,81.13c10.08,2,15-1.77,15.4-12.06.28-7.47.17-15,.06-22.43-.15-10.36-4.72-14.21-15.46-13Z"/><path d="M719.26,94.23H689.93V55.83H798.77v38.5H769.66V247.38h-50.4Z"/><path d="M190.06,55.64h49.76V208.9c8.09,0,15.68,0,23.26,0,8.34,0,7.36-.69,7.43,7.6.07,8.49,0,17,0,25.49,0,1.79-.17,3.57-.26,5.51h-80.2Z"/><path d="M1044.84,275.92c-12.61-.07-23.36-10.79-23-23.32.32-12.85,10-23.26,25.33-23.5,10.71-.16,21,12.14,20.87,24C1067.89,266.62,1057.5,275.88,1044.84,275.92Zm-17.79-22.67c.64,10.79,9,19.06,18.78,18.15,11.58-1.08,17.91-9.48,17.66-19.59-.24-9.47-8.61-18.09-20.15-17.38C1033.56,235,1026.45,243.15,1027.05,253.25Z"/><path d="M1042.16,255.92c-.16,2.63-.3,4.91-.44,7.19-4.2,1.43-6.25.57-6-4.07a112.41,112.41,0,0,0,0-13c-.22-3.62,1.27-4.71,4.65-4.44a53.37,53.37,0,0,0,7.48-.06c4.16-.24,8.26,3.53,6.74,7.21s-.89,6.74.05,10.13a20.44,20.44,0,0,1,.25,4.19c-2.83,1-5.3,1.46-5.55-2.68C1049.07,255.76,1046.34,255,1042.16,255.92Zm.42-10.42c-1.09,4.46-.33,6.37,3,5.6,1.23-.3,2.19-1.76,3.28-2.69Z"/></svg>