<svg id="Calque_1" data-name="Calque 1" xmlns="http://www.w3.org/2000/svg" viewBox="0 0 1319.25 570.98"><path d="M4.18,285.44C14.63,233.5,42,199.67,55.43,183.53c57.76-69.61,135.77-89,169.14-97.38A311.3,311.3,0,0,1,351.63,81c3.76.61,4.26,5.91.63,7.07-4.6,1.48-11.1-2.25-15.16.69a3.58,3.58,0,0,1-1.75.67C241.6,99.35,163.75,137.06,113,219.67c-53.35,86.78-35.78,179.57,45.51,241.58,72.93,55.63,157,66.74,245.46,58.23,27.48-2.64,54.38-8.11,84.13-17.12a3.66,3.66,0,0,1,3.41,6.31l-.06,0C377.65,599,178.87,589.82,73.12,489.55c-33.66-31.91-52-70.11-52-70.11a218.86,218.86,0,0,1-15-40.67A215.18,215.18,0,0,1,4.18,285.44Z"/><path d="M780.21,336.57c12.57,37.81,27.63,74.4,53.64,105.33,41.72,49.61,88.63,46.76,123.43-8.28,30-47.46,40.21-101.24,45.77-156q14-138.36-26.76-271.56c-.36-1.15.16-2.58.46-6.09,21,25.33,34.29,52.77,43.25,82.28,36.41,120,32.81,238.58-13.69,355.36a207.8,207.8,0,0,1-37.48,60.89c-42.3,47.87-94.3,47.08-134.66-2.3-28.87-35.32-43-77.35-53.15-120.93-2.32-9.94-3.41-20.17-5.07-30.27C774.79,340.91,772.4,336.18,780.21,336.57Z"/><path d="M501.31,325.12c.14,33.35,3.57,66.87-19.67,96-25.28,31.7-67,46.12-106.48,34.32-40-11.93-69.86-48.43-71-88.52-.88-30.06.2-60.17-.48-90.24-.29-12.34,4.53-14.53,14.52-10.1,16.34,7.24,26.37,19.32,26.69,37.79s-.12,36.92.2,55.37c.57,33.58,25.85,60.56,56.87,61.07,32.89.55,57.86-25.44,58.25-60.83q.29-25.63,0-51.27C460,297.2,464,287.18,471,278.5c6.69-8.3,16.47-15.7,26.38-12.33,8.46,2.88,3.22,14.43,3.69,22C501.87,300.47,501.31,312.82,501.31,325.12Z"/><path d="M158.73,288.28c0-28.69.31-57.39-.13-86.07-.21-13.48,5.24-15.52,16.2-10.05,19,9.47,25,26,25,45.71.1,38.93-.05,77.87.06,116.8.13,44.31,22.06,66.62,67,66.64,19.18,0,35.5,3.45,44.4,22.37,4.65,9.88,4.64,16.6-9.89,16-35.15-1.44-71.4,5.33-102.62-18.94-24.69-19.19-39.91-42.65-39.94-74.6q0-38.92,0-77.86Z"/><path d="M1060.12,349.15c0-23.94.54-47.88-.25-71.79-.41-12.33,4.39-14.36,14.43-10.32,17,6.85,26.45,19.88,26.68,37.82.61,47.17.07,94.36.38,141.53.08,11.64-3.85,15-14.7,10.17-16.44-7.32-26.48-19-26.52-37.67C1060.09,395.64,1060.13,372.39,1060.12,349.15Z"/><path d="M635.68,265.56c-19.81-3.51-39.53-2.25-59.29-2.32-10.67,0-14.55-3.76-14.25-14.38.57-19.78.11-39.6.15-59.4,0-16.21-5.93-29.3-20.1-37.87-14.86-9-20.84-5.83-21,11.42-.24,34.14-.07,68.28-.06,102.43,0,32.09-.31,64.18.07,96.27.64,53.07,41.63,95.61,93.63,97.69,52.69,2.11,99.16-36.93,104-87.34C723.87,319.12,688.92,275,635.68,265.56Zm33,127.46c-14.13,22.55-39.7,32.31-65.87,25.14-22.45-6.16-39.37-28.4-40.32-53.76-.49-13,1.06-26.11-.46-38.92-2.19-18.41,4.72-25.19,22.75-22.36,5.34.83,10.93.13,20.77.13,19.62-1.76,42.16.09,58.85,21C680.37,344.29,682.41,371.06,668.65,393Z"/><path d="M1319.24,358.54c-.8-51.3-45.68-94.45-99.25-95.39-51.16-.9-97.36,43.79-98.34,95.82-.57,30.76-.1,61.54-.13,92.32,0,30.08-.37,60.18.21,90.26.16,8.16-5.25,20.49,4.91,23.73,12.33,3.94,21.61-5.69,28.42-15.73a45,45,0,0,0,7.65-27.16c-.34-13.67,1.24-27.52-.4-41-2.31-19.08,5.74-23.94,23.18-22.16,12.88,1.31,26,.57,39,.13C1279.06,457.51,1320.09,413.72,1319.24,358.54ZM1278,366.48c-1.83,24.42-19.09,45.68-42.5,51.81a107.94,107.94,0,0,1-35,3.26c-37.79,0-37.89,0-37.75-34.92.1-22.92-3.17-46.4,15.93-65.14,18.21-17.87,41.52-23.65,63.41-13.93C1265.45,317.91,1279.89,341.62,1278,366.48Z"/></svg>