<svg id="Calque_1" data-name="Calque 1" xmlns="http://www.w3.org/2000/svg" viewBox="0 0 2426.47 377.95"><defs><style>.cls-1{fill-rule:evenodd;}</style></defs><path class="cls-1" d="M1970.37,422.67V323.51h7.57l16.69-3.35,11.83-4.25,11.22-6.36,10-7.28,9.09-9.09,7.87-10.33,7.6-14.24,3.93-11.83,2.74-12.44.3-10.61-.61-12.44-2.74-12.44-4.54-11.53-6.08-11.22-7.57-10L2024,163.67,2013.4,157l-11.53-5.46-12.14-3.34L1977,146.37h-6.66V46.28l11.53.3L2001,48.7l18.5,3.95,17.91,5.77,17,7.27,16.39,8.8,16.08,11.22,15.76,13.64,13.66,14.56,11.22,14.87,9.7,15.77,7.6,16.07,5.13,15.16,1.52,6.67V53.24h91.3L2364,232.51l-.3-180.18,99.5.91V418.42h-89.8L2250,240.08V418.42h-98.57V288.93l-2.44,7-6.35,15.79-8.51,16.37-10,15.47-11.53,14.56-12.74,13.35-14.24,12.14-15.17,10.61-16.08,9.09-17.28,7.57-19.4,6.09-19.13,3.93-18.19,1.83h-10v0Zm0-376.39V146.37h-6.09l-12.73,1.82-12.12,3.64-11.55,5.46L1917.27,164l-9.7,8.49-8.49,9.4-7,10.92L1887,204l-3.65,12.14-2.12,12.74v12.44l1.83,12.73,3.34,12.14,5.16,11.83,2.42,4.54,1.82,2.44,3.65,5.16,8.79,9.4,9.7,7.88,10.92,6.69,11.83,4.84,12.14,3.34,12.74,1.52,4.86-.3V422.7h-8.48l-18.21-1.52-18.18-3.32-18.21-5.77L1890,404.81l-16.39-8.48L1858.46,386l-13.63-11.53-5.77-4.83-4.84-4.87v53.69h-209V53.24h98V328h84l-3.64-7.57-3.93-7.87-6.69-16.7-5.14-17.27-3.64-18.21-1.83-18.19V224.33l2.12-18.81,4-19.1,5.45-18.51,7.27-17,9.12-16.07,10.31-15.16,11.83-14.27,13.35-13L1860,80.86l15.47-10,16.08-8.18,17-7,17.6-4.86,18.18-3,18.19-1.52h7.86v0ZM935.17,358.68V273.74h22.14V205.81l-22.14,33.67V74.18l12.74-20.94h105.56V418.42H957.31V358.69H935.17Zm198.06,59.74h97.06V142.12H1300V53.24H1066.19v88.88h67v276.3Zm176.82,0h98.89V280.74H1509V418.42h98.26V53.24l-98.26-.3V193.68H1408.94V53.24h-98.89V418.42ZM200,147l8.8,3,11.83,5.76,10.92,7.29,9.71,8.49,8.5,9.72,7,10.92,5.46,11.53,3.64,12.14,2.12,11.83.61,10.9-.9,10.92L265.48,261l-4.26,11.83-5.75,11.53L247,295.62l-10.61,10.31-11.83,8.82-12.44,6.36L200,325.36V417l8.79-1.22,20.62-5.16,19.42-7,16.37-8.19,15.77-10.33,14.56-11.83,12.74-12.41,11.22-14,10.92-16.39,5.76-9.7v97.64h201.7V330.5H433.5V280.14H537.84V193.38H433.5V139.69H537.84V53.24H336.14v101L334,148.49l-8.18-13.64L314.61,120,300,104.52l-15.16-13L269.42,80.87l-17.9-9.11-22.14-7.88-21.84-5.77L200,56.9V147ZM935.17,74.18v165.3L913,273.75h22.15v84.94h-57l-7,7-14.25,13-14.87,11.53-15.77,9.7-16.68,8.18-17.29,6.69-17.9,4.84L755.92,423l-18.81,1.22-18.51-.3-18.19-2.44-18.81-4.23-19.12-6.38L644.9,403l-15.46-9.7-14.87-10.92-13-12.14L589.4,356.58,578.48,342,569.06,326l-8.48-18.82-7-20.62-4.55-19.11-2.13-18.82-.59-18.18,1.51-18.51,3-18.2,4.85-17.88,7-17.9,8.79-17.29,10.31-15.46,11.53-14.26,12.74-12.74,14.25-11.52,15.16-10.31,17-9.09,19.11-7.89L691,53.9l18.2-3.33,18.51-1.83,18.49.61,18.2,1.82,18.2,4.25,18.19,6.07,17.29,7.28,16.07,9.1L849,88.48l13.65,11.83,11.53,11.53,4.55,5.46-50.35,78.26L822,189.8,815.66,184,801.4,173.42l-16.08-9.7L768,155.83,750.74,151l-15.17-1.81-14.55.9-14.87,3.65-14.55,5.46-11.83,7.57-9.7,8.19-8.2,9.71-7,10.92-5.15,11.83-3.65,12.44-1.5,12.37v12.44l2.12,12.44,3.95,12.14,5.46,11.83,7.29,10.61,8.79,9.4,9.71,7.57L692.84,315,705,319.86l13.65,3,13.66,1.51,13-.9,12.14-2.44,12.14-4.57,10.92-5.74,10.31-7.28,8.19-7.29,3.64-3.62L935.17,74.18ZM131.1,330.47V142.12h27l13.34.3,12.74,1.22,12.43,2.13,3.34,1.22V56.9l-14.56-2.13-24.87-1.51H36.76V418.43h142l13.35-.58,7.88-.91V325.35l-1.22.3-14.55,3-17,1.22-9.4.61Z" transform="translate(-36.76 -46.26)"/></svg>