<svg id="Calque_1" data-name="Calque 1" xmlns="http://www.w3.org/2000/svg" viewBox="0 0 1283.25 439.39"><path d="M366.74,181c-61.66-17.49-122.81-11.53-183.15,7C129.75,204.6,81,229.84,44,273.82c-3.22,3.84-6.35,11.31-4.67,14.73,1.84,3.77,9.19,6.44,14.3,6.73,16.27.92,32.85,2.22,48.85,0,11.08-1.51,24.22-5.86,31.53-13.57,21-22.21,45.86-36.75,74.8-44.82,31-8.63,62.35-11.19,93.6-1.63,16.26,5,30.37,13.32,37.23,32.78H325.62c-28.67-.06-57.36-.9-86,.06-22.3.75-42.44,8.53-55.91,27.48-10.17,14.31-5.57,27.59,11.1,33.09a78,78,0,0,0,23.33,3.64c49.38.48,98.8,1.44,148.15.13,16.21-.43,32.95-5.48,48.12-11.66,8.94-3.65,18.15-12.32,22.26-21.07,12.57-26.72,11.62-53.51-6.62-78.3C414.15,199.82,391.58,188.07,366.74,181Z" transform="translate(-17.4 -5.81)"/><path d="M1283.07,59.54C1184.56,30,1083.81,13.41,981.19,7.8c-78.54-4.3-156.94-1.9-234.7,9.77C662.35,30.21,580.49,52,503.2,88.25c-17.71,8.3-33.92,8-52.14,4C374.63,75.73,297.67,65,219.37,77.91c-17.26,2.84-34.34,6.83-51.5,10.3.26,1.66.51,3.33.77,5,3.53,0,7.11.37,10.6-.06,53.69-6.56,107.14-6.25,160.34,4.67,46.78,9.6,91,26.54,134,46.66,8,3.72,14.09,2.82,22-1.46,28.95-15.69,57.75-32.12,88.08-44.71C695.88,51.75,814.47,37.92,934.58,35.08c45.28-1.07,90.84,1.06,136,4.93,58.63,5,117,13,175.43,20.23,18,2.23,35.7,6.21,53.54,9.38.37-1.26.73-2.52,1.1-3.78C1294.79,63.72,1289,61.32,1283.07,59.54Z" transform="translate(-17.4 -5.81)"/><path d="M858.9,247.35c10-12.11,9.7-23.32-2.16-33.51a133.81,133.81,0,0,0-24.87-17.2c-32-16.68-66.52-21.81-86.74-21.44-74.09.31-129.6,13.75-181.9,40-31.76,15.92-60.75,35.79-82.72,64.3-2.63,3.41-5.15,9.45-3.8,12.62s7.49,6.25,11.63,6.4c18.92.68,38,1.6,56.76-.21,9.36-.89,20.64-5.16,26.82-11.82,31.52-34,71.23-49.6,116-52.82,28.21-2,56.52-.14,79.49,20.7C793.13,277.69,836.8,274.16,858.9,247.35Z" transform="translate(-17.4 -5.81)"/><path d="M782,352.69c-19.08-4.61-36.54.65-53.66,8.54-12.37,5.69-24.54,12.24-37.47,16.24-36.48,11.3-73.37,15.42-109.65-.87-16.9-7.59-28-20.58-27.07-40,.64-13.27-6.38-17.63-17.2-18-17.18-.63-34.44-1.05-51.57,0-23,1.45-32.94,13.66-31,36.79,2.84,33.82,23.45,55,52.06,69.46,31.77,16,66.06,20.8,95.54,20.06,61.82.12,114.79-13.08,165-37.37,9.72-4.7,19.29-11.09,26.71-18.83C808.15,373.67,802.42,357.61,782,352.69Z" transform="translate(-17.4 -5.81)"/><path d="M1223.89,178.13c-23.69-1.59-47.44-2.35-71.16-3.44l0,1c-13.67,0-27.34-.06-41,0-53.29.28-103.63,12.61-150.45,38-29,15.73-54.6,35.59-71.46,64.77-8.94,15.48-4.16,24.52,13.67,25.22,15.41.61,30.88.72,46.28,0,14.79-.68,26.45-6.89,34.79-20.26,5.19-8.33,12.75-15.77,20.68-21.69,22.24-16.58,48.14-23.19,75.52-23.52,37-.44,74,.44,111-.35,17.09-.37,33.43-6.23,44.67-19.57,5.28-6.27,9.27-16.18,8.77-24.13C1244.51,183.38,1234.07,178.81,1223.89,178.13Z" transform="translate(-17.4 -5.81)"/><path d="M303.81,383.89a77.51,77.51,0,0,0-19.54-2.29c-28.19-.33-56.46.93-84.56-.81-18.15-1.12-36.78-4.36-53.86-10.41-18.62-6.6-29.94-21.45-28.63-42.8.66-10.74-5.84-14.25-14.57-14.47-18.93-.48-37.92-.93-56.82,0-19.47.93-28.32,11.14-28.43,30.75s6.78,36.89,20.19,51.44c17,18.42,38.29,30.76,62.33,34.89,34.94,6,70.49,8.43,105.78,12.38l.36-3c18.95,0,37.89.17,56.84,0,19.29-.21,36.4-6.62,50.05-20.33C327.74,404.3,323.8,389.39,303.81,383.89Z" transform="translate(-17.4 -5.81)"/><path d="M943.13,321.42a349.32,349.32,0,0,0-47.55,0c-17.66,1.34-31.1,9.23-38.58,27.08-8.46,20.21-19.25,39.46-29,59.16-9.56,19.45-2.06,33.33,19.76,36.44,4.78.69,9.66.66,16.45,1.09,28.09-2.34,52.36-12.94,65.26-42.64,8.39-19.31,18.42-37.91,27.48-56.93C964.48,330,960.55,322.49,943.13,321.42Z" transform="translate(-17.4 -5.81)"/><path d="M1155.09,282.07c-31.68-.84-63.39-1.2-95.07-.49-21.75.48-41.56,7.8-56.28,24.73-13.56,15.6-8.67,31.7,11.08,37.36a72.09,72.09,0,0,0,18.18,2.45c15.4.33,30.81.11,46.22.11v.17c16.29,0,32.79,1.62,48.8-.48a128.85,128.85,0,0,0,41-12.45c17.47-8.91,24.59-22.68,20.26-34.56C1183.45,283,1168.56,282.42,1155.09,282.07Z" transform="translate(-17.4 -5.81)"/><path d="M1049.17,63.34c-77.3-4-154.12-.62-230.16,14.53-34.09,6.79-67.38,16.21-97.82,34.39,66.7-15.06,134.47-22,202.64-24.49,93.07-3.39,185.93,1.76,278.75,8.57,25.93,1.9,52.12.29,81.15.29-4.66-1.53-6.57-2.35-8.56-2.78C1200.64,77.78,1125.37,67.27,1049.17,63.34Z" transform="translate(-17.4 -5.81)"/></svg>