<svg id="Calque_1" data-name="Calque 1" xmlns="http://www.w3.org/2000/svg" viewBox="0 0 189.66 117.78"><defs><style>.cls-1{fill:none;}</style></defs><path d="M8.42,124.28l-.11,0-.12,0V80a.24.24,0,0,1,.22,0Q8.43,102.14,8.42,124.28Z" transform="translate(-8.19 -6.6)"/><path d="M172,124.35c-4.18,0-8.09,0-12,0-.65,0-.79-.42-1-.84-1.2-2.47-2.42-4.94-3.58-7.43a1.33,1.33,0,0,0-1.41-.93q-9.95,0-19.89,0a1.26,1.26,0,0,0-1.34.86c-1.12,2.5-2.31,5-3.47,7.47-.2.42-.32.87-1,.87-3.58,0-7.17,0-10.93,0l1.56-3.21Q129,101.06,139,81a1.6,1.6,0,0,1,1.73-1c2.59.06,5.19,0,7.78,0a1.4,1.4,0,0,1,1.47.89q9.1,18.09,18.26,36.15C169.48,119.34,170.7,121.75,172,124.35Zm-33.94-19.26c3.83,0,7.46,0,11.09,0,.93,0,1-.23.61-1-1.73-3.63-3.42-7.28-5.12-10.93-.12-.24-.16-.54-.51-.66Z" transform="translate(-8.19 -6.6)"/><path d="M90.22,124.35H78.09c-.61,0-.68-.46-.87-.83-1.2-2.47-2.42-4.93-3.58-7.43a1.35,1.35,0,0,0-1.42-.93q-9.94,0-19.88,0A1.26,1.26,0,0,0,51,116c-1.14,2.54-2.35,5.06-3.53,7.58-.17.35-.25.75-.79.75H35.62c.42-.87.75-1.58,1.1-2.28Q47,101.55,57.19,81A1.68,1.68,0,0,1,59,79.9c2.51.07,5,.06,7.54,0a1.62,1.62,0,0,1,1.74,1q9.27,18.41,18.59,36.79Zm-27.77-32L56.33,105h12C66.39,100.78,64.48,96.68,62.45,92.31Z" transform="translate(-8.19 -6.6)"/><path d="M8.42,124.28q0-22.14,0-44.28c.36,0,.72-.08,1.07-.08q18.27,0,36.55,0c1,0,1.26.26,1.23,1.25-.07,2.51-.07,5,0,7.54,0,.94-.29,1.1-1.15,1.1-8.43,0-16.85,0-25.28-.05-1,0-1.38.23-1.33,1.31.1,2,.07,4.07,0,6.1,0,.89.21,1.15,1.13,1.14,4.43-.05,8.86,0,13.3,0,.87,0,1.17.18,1.14,1.11q-.11,4,0,8c0,.93-.28,1.11-1.14,1.1-4.44,0-8.87,0-13.3,0-.9,0-1.14.22-1.13,1.12,0,4.59,0,9.18,0,13.76,0,.85-.24,1.07-1.07,1.06C15.13,124.3,11.77,124.3,8.42,124.28Z" transform="translate(-8.19 -6.6)"/><path d="M73.66,79.92c3.1,0,5.93,0,8.75,0,1.71,0,3.61-.42,5.09.19s2.54,2.22,3.75,3.43c3.57,3.53,7.17,7,10.67,10.65.91.94,1.36.81,2.19,0,4.45-4.52,9-9,13.44-13.47a2.39,2.39,0,0,1,1.88-.78c3.83,0,7.67,0,11.5,0,.38,0,.75,0,1.37.08l-7.07,7.38q-8,8.34-16,16.65a2.17,2.17,0,0,0-.63,1.7c0,5.82,0,11.64,0,17.46,0,1-.25,1.2-1.19,1.18-3-.06-6-.07-9,0-1,0-1.17-.29-1.16-1.2,0-5.78,0-11.56,0-17.34a2.63,2.63,0,0,0-.82-2q-11-11.46-22-23C74.29,80.63,74.09,80.4,73.66,79.92Z" transform="translate(-8.19 -6.6)"/><path d="M103.12,6.6l.51.46Q120.29,23.74,137,40.41c.55.55.45.84,0,1.33q-10.38,10.36-20.71,20.77c-.56.57-.86.55-1.41,0-2.17-2.23-4.36-4.43-6.6-6.59-.63-.61-.55-.93,0-1.49,4.14-4.1,8.24-8.24,12.39-12.33.68-.67.64-1,0-1.66C112.31,32.15,104,23.84,95.72,15.57c-.75-.74-.78-1.11,0-1.84,2.26-2.14,4.42-4.38,6.63-6.57C102.56,6.94,102.71,6.63,103.12,6.6Z" transform="translate(-8.19 -6.6)"/><path d="M90.22,19.35c.27.24.51.43.73.65,2.21,2.2,4.39,4.42,6.62,6.58.61.59.6.92,0,1.5-4.06,4-8.06,8.07-12.13,12.07-.69.67-.77,1,0,1.74C93.7,50.12,102,58.4,110.25,66.63c.75.75.75,1.12,0,1.84-2.22,2.12-4.38,4.31-6.52,6.51-.51.51-.82.66-1.41.06Q85.69,58.39,69,41.8c-.7-.7-.34-1,.14-1.5q8.6-8.58,17.18-17.18l3.22-3.21C89.76,19.72,90,19.55,90.22,19.35Z" transform="translate(-8.19 -6.6)"/><path d="M179.17,79.92c5.83,0,11.66,0,17.49,0,.93,0,1.22.23,1.19,1.18-.07,2.59,0,5.18,0,7.77,0,.83-.2,1.09-1.06,1.08-3.39-.05-6.78,0-10.18-.05-1,0-1.34.19-1.34,1.3,0,10.6,0,21.2,0,31.8,0,1-.18,1.43-1.33,1.4-2.91-.09-5.83-.07-8.74,0-1,0-1.19-.28-1.18-1.2,0-10.64,0-21.29,0-31.93,0-1.13-.33-1.38-1.39-1.36-3.72.07-7.43,0-11.14,0-.79,0-1-.21-1-1,0-2.63.08-5.27,0-7.9,0-1,.38-1.13,1.24-1.13C167.59,79.93,173.38,79.92,179.17,79.92Z" transform="translate(-8.19 -6.6)"/><path d="M103,50.56c-.16-.14-.32-.25-.46-.39-2.78-2.79-5.56-5.59-8.36-8.37-.44-.44-.32-.67,0-1q4.13-4.08,8.2-8.2c.43-.43.69-.47,1.14,0q4.06,4.13,8.2,8.19c.45.44.45.69,0,1.14-2.75,2.71-5.48,5.45-8.21,8.18Z" transform="translate(-8.19 -6.6)"/><path class="cls-1" d="M138.07,105.09l6.07-12.56c.35.12.39.42.51.66,1.7,3.65,3.39,7.3,5.12,10.93.37.76.32,1-.61,1C145.53,105.06,141.9,105.09,138.07,105.09Z" transform="translate(-8.19 -6.6)"/><path class="cls-1" d="M62.45,92.31c2,4.37,3.94,8.47,5.91,12.69h-12Z" transform="translate(-8.19 -6.6)"/></svg>