<svg xmlns="http://www.w3.org/2000/svg" viewBox="0 0 456.17 453.23"><defs><style>.cls-1{fill-rule:evenodd;}</style></defs><g id="Page_1" data-name="Page 1"><g id="Camada_1-2" data-name="Camada 1"><path class="cls-1" d="M113,140.19h54.83v20.24l-35.92,0,.06,54.71,28.2,0,.09,20.5L132,235.67l-.12,87.72H113V140.19Zm63.37-.53h18.88V323.39H176.33V139.66ZM280.15,322.85H261.27l-.12-87.34h-26l-.41,87.36-17,0V139.66H262.2l17.95,36.25V322.85ZM261.28,211.13H235.21V159.89l16.16,0,9.91,24v27.27Zm23.07-70.94h57.82l-.2,20.57-18.91,0-.21,162.14H304l-.84-162-18.81-.12,0-20.52Zm-56.26,313C102.14,453.23,0,351.75,0,226.62S102.14,0,228.09,0,456.17,101.48,456.17,226.62,354,453.23,228.09,453.23ZM37.53,135.33C42.69,103.49,63.06,80,95.75,61.1,167.12,14,280.38,13.3,361.89,62.76c29.43,15.35,46.39,38.8,54.35,69.19,16.44,86.41,2.11,161.9-34.29,227.17-39.73,91-249.94,92.51-299.32,10.62-41.83-56.69-62.22-151.2-45.1-234.41Zm308,237.21c-47.09,47.74-203.49,37.49-232.19,0C78.24,295.37,65.62,216.32,69.93,135.86Q68.06,95.75,96.27,81.79c65.3-29.32,195.88-32.54,256.46-1.18,25,9.67,34.16,33.75,33.14,68.83,2,88-16,160.81-40.32,223.1Z"/></g></g></svg>