<svg id="Calque_1" data-name="Calque 1" xmlns="http://www.w3.org/2000/svg" viewBox="0 0 1123.65 228.56"><defs><style>.cls-1{fill:none;}</style></defs><path d="M0,174.29c.83-3.95,1.63-7.72,2.46-11.64H1093.29c.29,2.31-.68,7.65-2.1,11.65C1088.65,174.93,4,175,0,174.29Z"/><path d="M291,134.73c-1.82-26.53-3.63-52.82-5.45-79.11l-.68-.09c-3,13.08-5.62,26.24-8.46,39.35s-5.64,26.49-8.47,39.85H235.59c9.31-44.11,18.66-88,28-131.89h38.65c1.61,26.58,3.21,53,4.81,79.36l.59.09q8.46-39.68,16.93-79.47h32.25c-2,11.21-4.63,22.14-6.91,33.12s-4.68,21.86-7,32.8-4.66,22.09-7,33.13-4.66,21.83-7,32.86Z"/><path d="M937.79,82.12c-3.76,17.6-7.47,35-11.22,52.55H892c9.36-44,18.68-87.85,28.08-132h3.66c16.31,0,32.62-.07,48.93.06a66.74,66.74,0,0,1,12,1.12c12.81,2.43,19.53,10.79,19.34,23.87a54.87,54.87,0,0,1-5.25,22.69c-4.92,10.5-11.76,15.85-24.32,19.07,2,.51,3.7.9,5.4,1.43C986,72.8,989.25,77.11,990,83.44a46.89,46.89,0,0,1-1,14.89c-1.52,7.45-3.09,14.88-4.53,22.34a20.25,20.25,0,0,0-.45,6.14c.22,1.73,1.27,3.35,2,5,.29.73,1,1.67.74,2.16s-1.37.87-2.12.88c-8.91.06-17.83,0-26.74,0h-7.6a21.67,21.67,0,0,1-.59-11.11c1.35-8.25,3.08-16.43,4.49-24.66a60.21,60.21,0,0,0,1-10c0-4.59-2.23-6.79-6.8-7C944.92,82,941.46,82.12,937.79,82.12Zm11.63-54.74-6.56,30.85c3.54,0,6.7.31,9.78-.07,5.7-.69,9.75-4,12.3-9.06a25.52,25.52,0,0,0,2.76-12.9c-.21-4.37-2.42-7.26-6.73-8C957.27,27.66,953.46,27.66,949.42,27.38Z"/><path d="M1099.63,134.7h-39.28c-3.41-15-6.8-30-10.34-45.62-2.26,2.58-4,4.78-6,6.72a17,17,0,0,0-4.62,9.41c-1.75,9.05-3.79,18.05-5.73,27.07-.18.82-.48,1.62-.74,2.48H999.45a3.36,3.36,0,0,1-.38-.37.7.7,0,0,1-.12-.3,6.17,6.17,0,0,1,0-1.29q13.72-64.47,27.47-129a4.81,4.81,0,0,1,.55-1h34.22l-10.4,49.08.4.32c.54-.66,1.13-1.29,1.63-2,10.7-14.92,21.44-29.81,32-44.8a6,6,0,0,1,5.61-2.88c9.78.14,19.56.05,29.34.06,1,0,2.08.11,3.8.2-1,1.38-1.71,2.3-2.42,3.19q-20.51,26-41,51.9a5.45,5.45,0,0,0-1.13,5.59q9.89,33.59,19.55,67.22C1099,132,1099.24,133.19,1099.63,134.7Z"/><path d="M880.53,2.79c1.37,44,2.73,87.77,4.08,131.43-2.44.83-30.87,1.1-36.49.38-.39-7.49,1.09-15,.78-22.73H822.06q-4.12,11.19-8.41,22.82H777c.5-1.24.88-2.31,1.35-3.34Q802,79.48,825.7,27.63c3.38-7.41,6.85-14.78,10.09-22.25.93-2.14,2.13-2.82,4.41-2.8,12.29.1,24.57,0,36.86,0C878,2.63,879,2.72,880.53,2.79ZM831.72,85.66c6.71,0,12.73.25,18.68-.15,1-6.13,2.64-51.75,1.92-53.95C845.5,49.49,838.72,67.27,831.72,85.66Z"/><path d="M445.38,95.63h33.18c-.35,2.48-.75,4.69-.95,6.93a19.52,19.52,0,0,0,.07,4.52c.6,4.18,2.91,6.38,7.09,6.77A12.34,12.34,0,0,0,495.11,110,17,17,0,0,0,500,97a9.68,9.68,0,0,0-3.56-7.42,50.85,50.85,0,0,0-7.83-5.19c-3.74-2-7.75-3.44-11.49-5.41a68.93,68.93,0,0,1-10-6.09,23.67,23.67,0,0,1-9.71-19.73C457.52,38,462,24.48,472.76,13.49a42.63,42.63,0,0,1,20.9-11.41,71.92,71.92,0,0,1,32.95-.33,34.54,34.54,0,0,1,3.45,1c9.06,3,14.64,9.08,16,18.68a52.38,52.38,0,0,1-1.31,19.47H512.6a30.34,30.34,0,0,0,.6-4.12,39.42,39.42,0,0,0-.34-8.36c-.68-3.2-3.25-4.85-6.55-4.73a14.54,14.54,0,0,0-4.74,1c-9.49,3.84-11.46,17.26-3.37,23.46a47.51,47.51,0,0,0,7.85,4.58c3.69,1.84,7.53,3.38,11.23,5.19a68.54,68.54,0,0,1,7.1,4c10.17,6.53,14.16,16,13.08,27.86a63.64,63.64,0,0,1-4.13,17.36c-5.21,13.37-14.54,22.52-28.27,26.82a81.14,81.14,0,0,1-43.74,1.23,28.81,28.81,0,0,1-4.31-1.47c-8.42-3.51-13-9.88-13.84-18.9C442.56,108.28,443.77,102,445.38,95.63Z"/><path d="M546.46,95.58h33.23c-.19,1.19-.34,2.2-.5,3.21-.45,3-1.07,6-.36,9a7,7,0,0,0,5.84,5.81,11.9,11.9,0,0,0,10.87-3A16.6,16.6,0,0,0,601,95.9,9.92,9.92,0,0,0,597,89a50.55,50.55,0,0,0-7.4-4.7c-4.15-2.13-8.47-3.92-12.67-6a40.19,40.19,0,0,1-11-7.47,24,24,0,0,1-7.37-16.56A56.41,56.41,0,0,1,569.22,18.8c5.88-8.28,14-13.53,23.75-16.23a71.51,71.51,0,0,1,35.15-.73,34.56,34.56,0,0,1,3.43,1c9.69,3.3,14.88,10.16,15.79,20.25a52.14,52.14,0,0,1-1.5,17.38c-2.41.67-28,.83-32.22.17a26.87,26.87,0,0,0,.69-4,35.21,35.21,0,0,0-.3-8c-.75-3.5-3.45-5.19-7-4.95a14.53,14.53,0,0,0-4.41,1c-9.47,3.95-11.33,17.35-3.2,23.49a49.17,49.17,0,0,0,7.87,4.56c4.08,2,8.31,3.77,12.39,5.79a59.07,59.07,0,0,1,6.74,4c8.52,5.76,12.61,13.92,12.32,24.11a57.33,57.33,0,0,1-8.55,29c-6.28,10.12-15.55,16.26-26.9,19.21a84,84,0,0,1-38.75.84,36.22,36.22,0,0,1-6.8-2.2c-8.65-3.75-13-10.53-13.5-19.82C543.83,107.6,544.93,101.75,546.46,95.58Z"/><path d="M403.5,31c-1.6,7.48-3.13,14.65-4.76,22.26h41c-2,9.22-3.82,18-5.75,27.1H393c-1.85,8.73-3.63,17.15-5.53,26.13h45.41c-2.07,9.72-4,18.91-6,28.21H347.66c-.23-.2-.32-.26-.37-.35a.53.53,0,0,1-.12-.3,5.45,5.45,0,0,1,0-1.28Q360.92,68.33,374.66,3.86a4.92,4.92,0,0,1,.52-1h77.75c-.32,4.84-1.77,9.36-2.64,14s-2,9.29-3.09,14.23Z"/><path d="M737.1,84.62,726.41,134.7h-34c-.24-2.67,25-123.11,27.62-131.76a16.69,16.69,0,0,1,2.36-.3c16.53,0,33.06-.05,49.59,0a40.61,40.61,0,0,1,13.15,2C794.83,8,800.7,14.92,801.83,24.9c1.95,17.1-2.39,32.59-14.27,45.43-7,7.54-16,11.38-26,13.18-6.67,1.21-13.42,1.15-20.16,1.11C740,84.61,738.64,84.62,737.1,84.62Zm5.38-25.3c3.32,0,6.23.18,9.12,0a12.54,12.54,0,0,0,9.52-5.57,27.22,27.22,0,0,0,4.77-17.88c-.31-4.47-3-7.21-7.38-7.8-3-.4-6-.38-9.26-.57C747,38.26,744.74,48.7,742.48,59.32Z"/><path d="M94.87,80.44h-41L42.4,134.29c-2.45.75-30.49.92-34.64.19L35.66,3.22c2.81-.77,75.05-.83,78.39,0-1.91,9.08-3.83,18.17-5.82,27.61-1.31.09-2.56.25-3.81.25q-17.94,0-35.88,0H64.4c-1.59,7.43-3.13,14.6-4.75,22.19h41Z"/><path d="M200.31,134.71H165.79c3.47-17.24,7.23-34.24,10.83-51.27s7.19-33.94,10.88-51.33H161.67c2.13-10,4.17-19.62,6.22-29.25h86.32C252.13,12.68,250.11,22.2,248,32H222.19Z"/><path d="M131.52,134.71H97.15c9.37-44.09,18.69-87.89,28-131.86h34C159.44,5.46,134.11,126.24,131.52,134.71Z"/><path d="M986.81,220.11l5,7.43c-4.18,1.47-5.51,1.07-7.69-2.18-.54-.81-1.14-1.59-1.6-2.45-1.08-2-2.6-2.83-5.21-1.81,0,1-.13,2.12-.15,3.27s0,2.32,0,3.66h-5.22c-.2-7.76-.15-15.4,0-23.19,4.57,0,8.8-.27,13,.08a6.62,6.62,0,0,1,6.38,5.6c.63,3.42,0,6.51-3.23,8.55a5,5,0,0,0-.54.35A5.47,5.47,0,0,0,986.81,220.11Zm-9.52-4.25c2,0,3.72.1,5.42,0,2.11-.16,3.11-1.16,3.22-2.9.11-1.9-.9-3.13-3.13-3.36a52.88,52.88,0,0,0-5.51,0Z"/><path d="M768.83,220.26l5.19,8c-1.92,0-3.19-.05-4.45,0a2.75,2.75,0,0,1-2.67-1.46c-.87-1.38-1.79-2.72-2.71-4.06-1.6-2.34-1.61-2.33-5.15-1.54V228h-5.17V205a12.82,12.82,0,0,1,2.12-.34c3.25,0,6.52-.19,9.75.08,6.18.51,9.53,6.2,6.74,11.42C771.7,217.61,770.24,218.71,768.83,220.26Zm-9.61-4.42c2,0,3.8.12,5.59,0a3,3,0,0,0,3.08-3.09,2.94,2.94,0,0,0-2.77-3.05,52.38,52.38,0,0,0-5.9,0Z"/><path d="M475.79,221.16V228h-5.08V205a13,13,0,0,1,2.09-.34c3.25,0,6.52-.19,9.75.07,6.18.49,9.56,6.16,6.8,11.39-.77,1.46-2.22,2.56-3.66,4.17,1.5,2.27,3.19,4.81,5.25,7.9a39.58,39.58,0,0,1-5.12-.06,3.71,3.71,0,0,1-2-1.38,26.91,26.91,0,0,1-2.73-4C479.94,220.58,478.33,220.23,475.79,221.16Zm.24-5.35c2.17,0,4,.13,5.81,0a3,3,0,0,0,.27-6.06,51.24,51.24,0,0,0-6.23-.06c0,1.38,0,2.45,0,3.52C475.9,213.92,476,214.66,476,215.81Z"/><path d="M214.45,204.79c3.83,0,7.53-.36,11.14.08,6.54.81,10.43,5.65,10.25,12.08-.17,6.1-4.73,10.71-11.32,11.18-3.23.23-6.49,0-9.67,0C214,225.87,213.75,210.47,214.45,204.79ZM219.74,223c4.9.86,7.91-.05,9.56-2.74a7.22,7.22,0,0,0-.3-8c-2.39-3.1-5.67-3-9.26-2.48Z"/><path d="M259.64,209.3v4.48h10.53v4.88H259.71v4.8H272v4.15c-2.22.73-13.43.92-17.62.24v-23h17.25v4.5Z"/><path d="M171.73,228.06H154.26c-.42-7.69-.15-15.32-.18-23.19h17.55v4.48h-12v4.46h10.47v4.84H159.6v4.62h12.13Z"/><path d="M624.67,209.29v4.57h10.58v4.38c-3.37,1.16-7-.2-10.58.83v4.27h12.19V228H619.45V204.83h17.26v4.46Z"/><path d="M941.25,209.42A15,15,0,0,0,941,211c0,.76,0,1.51,0,2.71h10.61v4.87H941.15v4.75h12.06v4.32c-2.24.7-13.87.81-17.43.1V205.18c2.32-.67,13-.83,17.33-.22v4.33c-2,0-4,.1-6.06.13S943.19,209.42,941.25,209.42Z"/><path d="M434.76,204.76H452c.06,1.39.12,2.73.19,4.39-4.14.61-8.14,0-12.32.42v4.25h10.47v4.77H439.88v4.79H452v4.28c-2.19.68-12.2.87-17,.31C434.26,225.72,434.06,209.26,434.76,204.76Z"/><path d="M729.44,204.81h5.24c0,5.67.64,11.17-.39,16.63a7.87,7.87,0,0,1-6.41,6.62,17.62,17.62,0,0,1-6.75,0,7.63,7.63,0,0,1-6.56-7.17c-.36-5.27-.09-10.58-.09-16.08h4.91c.05,1.28.13,2.54.15,3.8.08,3.58,0,7.17.27,10.73.26,3.05,2.48,4.51,5.51,4.11,2.47-.32,3.93-2,4.06-5.07.13-3.26,0-6.52.06-9.77Z"/><path d="M831.2,223.12c-2.75,5.47-2.75,5.47-7.57,4.72l9.81-23.11h5.07l9.77,23c-4.84,1.18-4.84,1.18-7.61-4.56Zm1.9-5.12h5.62l-2.84-6.7Z"/><path d="M337.17,204.5l10,23.56h-5.42c-.81-1.68-1.59-3.32-2.39-5H330l-2.37,5h-5.3c3.33-7.84,6.53-15.41,9.88-23.32Zm-2.52,6.58c-1.07,2.78-1.84,4.78-2.65,6.9h5.44Z"/><path d="M791.65,204.69c4,0,7.47-.2,10.91.05,4.78.35,7.7,3.53,7.77,8s-3,7.85-7.82,8.31c-1.69.17-3.41,0-5.34,0-.12,2.52-.22,4.63-.34,6.94h-5C791.47,220.36,791.73,212.75,791.65,204.69Zm5.56,11.59a37.49,37.49,0,0,0,4.77,0,3.33,3.33,0,0,0,2.94-3.36,3.07,3.07,0,0,0-2.76-3.14,32.31,32.31,0,0,0-4.95-.06Z"/><path d="M295.75,221.14V228h-5.13V205a10.65,10.65,0,0,1,2.07-.34c3.56.13,7.18,0,10.65.6,3.7.67,5.57,3.55,5.66,7.32s-1.61,6.57-5.11,7.81a17.8,17.8,0,0,1-4.12.73C298.6,221.23,297.42,221.14,295.75,221.14Zm.14-4.89c1.25.06,2.2.12,3.16.14a8,8,0,0,0,1.62-.11,3.29,3.29,0,0,0,2.91-3.35,3,3,0,0,0-2.64-3.21,7.17,7.17,0,0,0-5.05.26Z"/><path d="M415.41,207.43l-2.6,3.76a16.38,16.38,0,0,0-3-1.29,17.5,17.5,0,0,0-4.43-.49c-.51,0-1.33.88-1.41,1.45a2.34,2.34,0,0,0,.94,1.82,11.47,11.47,0,0,0,2.71,1c1.53.52,3.13.9,4.61,1.55a5.91,5.91,0,0,1,3.84,5.86c0,2.85-1.16,5.09-3.79,6.31-4.05,1.87-8,1.2-11.89-.71a29,29,0,0,1-3-2l3-3.67a17.24,17.24,0,0,0,2.93,1.57,24.49,24.49,0,0,0,4.72.93,2.08,2.08,0,0,0,2.49-1.6c.27-1.31-.6-2-1.72-2.37s-2.05-.68-3.08-1-2.1-.55-3.1-1c-3.06-1.26-4.31-3.13-4.24-6.23s1.45-5.29,4.3-6.27C407.24,203.59,411.42,204.31,415.41,207.43Z"/><path d="M864,224.51c.95-1.12,1.9-2.26,2.73-3.25,2,.84,3.84,1.59,5.65,2.28a3.68,3.68,0,0,0,1.29.12c2.13,0,3.26-.56,3.36-1.81.13-1.76-1.31-2.1-2.51-2.52-1.74-.61-3.57-1-5.28-1.62-3.21-1.24-4.58-3.33-4.44-6.46a6.64,6.64,0,0,1,5.1-6.42,12.74,12.74,0,0,1,11.85,2.63l-2.54,3.71a35.44,35.44,0,0,0-4.41-1.76,6.62,6.62,0,0,0-3.19,0,2.39,2.39,0,0,0-1.36,1.57,2,2,0,0,0,.87,1.56,12.46,12.46,0,0,0,2.69,1.1c1.54.52,3.15.86,4.64,1.5a6,6,0,0,1,4,6.08,6.63,6.63,0,0,1-4.21,6.39C873.91,229.57,867.9,228.3,864,224.51Z"/><path d="M916.68,207.5l-2.59,3.6a49.18,49.18,0,0,0-4.74-1.74,6.15,6.15,0,0,0-2.89.07,1.91,1.91,0,0,0-1.23,1.28,2.39,2.39,0,0,0,.82,1.87,13.58,13.58,0,0,0,3,1.18c1.54.54,3.12,1,4.6,1.6a5.91,5.91,0,0,1,3.75,5.95,6.7,6.7,0,0,1-4,6.23c-4.36,2.1-10.83.77-14.47-3.11.87-1,1.75-2.11,2.76-3.34a14,14,0,0,0,2.58,1.39,32.3,32.3,0,0,0,5.33,1.09,1.89,1.89,0,0,0,2.29-1.77c0-.72-.92-1.56-1.63-2.07a8.81,8.81,0,0,0-2.44-.85c-1.24-.39-2.52-.69-3.73-1.17-3.22-1.28-4.49-3.21-4.38-6.46a6.51,6.51,0,0,1,5-6.42A12.78,12.78,0,0,1,916.68,207.5Z"/><path d="M597.87,210.89c-2.55-.67-4.49-1.3-6.49-1.66a2,2,0,0,0-2.57,1.44c-.36,1.54.75,2.11,2,2.5,1.66.52,3.35.93,5,1.52,3.93,1.41,5.64,3.81,5.25,7.22s-2.81,5.92-6.72,6.43a14.21,14.21,0,0,1-11.9-3.7l2.84-3.35c2.1.84,3.85,1.67,5.68,2.22a5.08,5.08,0,0,0,2.89,0c.71-.23,1.62-1,1.71-1.62a2.65,2.65,0,0,0-1.26-2,16.35,16.35,0,0,0-3.36-1.2c-1-.33-2.1-.56-3.11-1-3.32-1.32-4.65-3.39-4.44-6.76a6.92,6.92,0,0,1,5.32-6.26,13.05,13.05,0,0,1,11.52,2.85C599.36,208.73,598.53,209.92,597.87,210.89Z"/><path d="M135.08,207.53l-2.5,3.67a17.19,17.19,0,0,0-3-1.3,18.06,18.06,0,0,0-4.44-.5,2.09,2.09,0,0,0-1.46,1.41,2.31,2.31,0,0,0,.91,1.83,10.64,10.64,0,0,0,2.7,1.07c1.44.48,2.94.82,4.33,1.41,3,1.3,4.33,3.32,4.24,6.29a6.57,6.57,0,0,1-4.69,6.38c-5.08,1.72-9.55.32-14-3,1.07-1.33,2-2.46,3-3.7a15.05,15.05,0,0,0,2.94,1.62,25.43,25.43,0,0,0,5,.88c1.15.08,2.33-.58,2.19-1.85a3.17,3.17,0,0,0-1.72-2c-1.68-.74-3.51-1.11-5.25-1.71-4.07-1.41-5.71-3.82-5.2-7.51.47-3.38,3.19-5.73,7.08-6C128.84,204.22,132.18,204.79,135.08,207.53Z"/><path d="M380.51,207.4l-2.58,3.78a27.22,27.22,0,0,0-3.25-1.4,9.32,9.32,0,0,0-3.48-.49,3.17,3.17,0,0,0-2.17,1.47c-.51,1.05.42,1.79,1.37,2.19s1.65.54,2.47.81a45.37,45.37,0,0,1,4.31,1.44,6,6,0,0,1,4,6.07,6.7,6.7,0,0,1-4.22,6.37c-4.35,1.93-10.33.68-14.28-3.15l2.86-3.42a15.68,15.68,0,0,0,3,1.65,19.33,19.33,0,0,0,5.05.78,2.67,2.67,0,0,0,2.05-1.58c.12-.6-.77-1.61-1.45-2.13a8,8,0,0,0-2.42-.86c-1.34-.43-2.72-.75-4-1.28-3-1.23-4.35-3.22-4.27-6.22a6.29,6.29,0,0,1,4.32-6.27C372.31,203.59,376.5,204.32,380.51,207.4Z"/><path d="M695.69,207.44l-2.64,3.81a19.32,19.32,0,0,0-2.74-1.28,18.77,18.77,0,0,0-3.77-.74c-1.14-.09-2.39.35-2.37,1.64,0,.73.88,1.6,1.58,2.1a9.06,9.06,0,0,0,2.45.82,41.81,41.81,0,0,1,4.3,1.46,6,6,0,0,1,3.89,5.84c0,3-1.27,5.32-4,6.45-5.24,2.12-9.92.73-14.59-2.78l2.93-3.65a19.74,19.74,0,0,0,3.52,1.78,15,15,0,0,0,4.74.59,2.83,2.83,0,0,0,1.91-1.72c.16-.46-.66-1.51-1.29-1.9a13.25,13.25,0,0,0-3-1.1c-1.13-.36-2.31-.61-3.41-1-3.15-1.25-4.58-3.38-4.45-6.45a6.72,6.72,0,0,1,5.1-6.41A13,13,0,0,1,695.69,207.44Z"/><path d="M541.59,215.42v4.71h-10v-4.71Z"/><path d="M265.2,197.64l4,1.88c-3.48,3.53-3.75,3.64-7.57,3.2C262.23,200.68,263.74,199.4,265.2,197.64Z"/><path class="cls-1" d="M949.42,27.38c4,.28,7.85.28,11.55.87,4.31.69,6.52,3.58,6.73,8a25.52,25.52,0,0,1-2.76,12.9c-2.55,5.08-6.6,8.37-12.3,9.06-3.08.38-6.24.07-9.78.07Z"/><path class="cls-1" d="M831.72,85.66c7-18.39,13.78-36.17,20.6-54.1.72,2.2-.93,47.82-1.92,54C844.45,85.91,838.43,85.66,831.72,85.66Z"/><path class="cls-1" d="M742.48,59.32c2.26-10.62,4.47-21.06,6.77-31.86,3.25.19,6.28.17,9.26.57,4.41.59,7.07,3.33,7.38,7.8a27.22,27.22,0,0,1-4.77,17.88,12.54,12.54,0,0,1-9.52,5.57C748.71,59.5,745.8,59.32,742.48,59.32Z"/><path class="cls-1" d="M977.29,215.86v-6.32a52.88,52.88,0,0,1,5.51,0c2.23.23,3.24,1.46,3.13,3.36-.11,1.74-1.11,2.74-3.22,2.9C981,216,979.29,215.86,977.29,215.86Z"/><path class="cls-1" d="M759.22,215.84v-6.22a52.38,52.38,0,0,1,5.9,0,2.94,2.94,0,0,1,2.77,3.05,3,3,0,0,1-3.08,3.09C763,216,761.21,215.84,759.22,215.84Z"/><path class="cls-1" d="M476,215.81c-.07-1.15-.13-1.89-.15-2.63,0-1.07,0-2.14,0-3.52a51.24,51.24,0,0,1,6.23.06,3,3,0,0,1-.27,6.06C480,215.94,478.2,215.81,476,215.81Z"/><path class="cls-1" d="M219.74,223v-13.2c3.59-.56,6.87-.62,9.26,2.48a7.22,7.22,0,0,1,.3,8C227.65,222.91,224.64,223.82,219.74,223Z"/><path class="cls-1" d="M833.1,218l2.78-6.7,2.84,6.7Z"/><path class="cls-1" d="M334.65,211.08l2.79,6.9H332C332.81,215.86,333.58,213.86,334.65,211.08Z"/><path class="cls-1" d="M797.21,216.28v-6.6a32.31,32.31,0,0,1,4.95.06,3.07,3.07,0,0,1,2.76,3.14,3.33,3.33,0,0,1-2.94,3.36A37.49,37.49,0,0,1,797.21,216.28Z"/><path class="cls-1" d="M295.89,216.25V210a7.17,7.17,0,0,1,5.05-.26,3,3,0,0,1,2.64,3.21,3.29,3.29,0,0,1-2.91,3.35,8,8,0,0,1-1.62.11C298.09,216.37,297.14,216.31,295.89,216.25Z"/></svg>