<svg id="Calque_1" data-name="Calque 1" xmlns="http://www.w3.org/2000/svg" viewBox="0 0 2499.79 662"><defs><style>.cls-1{fill:#fff;}</style></defs><path d="M.1,0H668.64V662H.1Z" transform="translate(-0.1 0)"/><path class="cls-1" d="M544.58,107.44a708.64,708.64,0,0,0-93-1.65c-84.28,4.21-161.74,33.48-226.17,83.76-60.08,48-102.41,107.27-118.27,174.93h3.25C138.8,273.9,221,202.36,339.63,183.54c37.4-5.32,87-3.67,122.18,2.64l82.77-78.74Z" transform="translate(-0.1 0)"/><path class="cls-1" d="M306,339.5l23.72-70.74,23,70.74ZM347.58,350l21.6-24.91h47.2L436.6,350ZM245.21,364.77l13-24.91h46.25l14.39,24.91Z" transform="translate(-0.1 0)"/><path class="cls-1" d="M336.49,390.5l27.8,161.81a295.62,295.62,0,0,0,55.55-19.22Zm174.25,75.06L358.91,390.5,464.17,507.65A249.86,249.86,0,0,0,510.74,465.56ZM402.06,390.5,532.4,435.17a177.79,177.79,0,0,0,18.65-44.67ZM311.15,559.9l10.7-169.4L246,555.32a261,261,0,0,0,51.18,4.94c4.68,0,9.34-.13,14-.36ZM191.92,537.21,300.63,390.5,134.2,492.14c14.85,18.24,34.43,33.58,57.72,45.07ZM103.14,390.5a139.05,139.05,0,0,0,6.57,57.68L269.16,390.5Z" transform="translate(-0.1 0)"/><path d="M2412.21,393c-23.71,0-36.43-8.12-36.43-22.62s11.31-21.92,34.3-23.33l52-2.85v44.92c-23,3.17-39.61,3.88-49.85,3.88M2427,246.71c-25.47,0-44.93,2.78-72.85,7.78l4.25,34.27c20.52-3.23,43.13-6.47,65.42-6.47,24.75,0,38.2,9.31,38.2,29.37v2.21l-49.16,2.81c-51.28,2.1-75.7,19.43-75.7,52.69,0,36.41,23,56.57,65.08,56.57,21.58,0,38.19,0,97.61-8.85V310.63c0-43.74-23.34-63.92-72.85-63.92M2239.71,248c-24.37,0-53.74,4.58-71.07,11-12-7.78-27.94-11-46.67-11-32.54,0-74.26,5.67-87.32,8.81V420.63h40.64V287.76a258.37,258.37,0,0,1,37.83-2.57c26.19,0,38.91,11.72,38.91,38.88v96.56h41V312.81a85.07,85.07,0,0,0-2.81-22.38c13.43-3.9,27.23-5.24,40.66-5.24,26.18,0,38.91,13.05,38.91,39.61v95.83h40.65V313.18c0-46.7-28.29-65.14-70.73-65.14M1910.26,393c-23.69,0-36.4-8.12-36.4-22.62s11.31-21.92,34.31-23.33l52-2.85v44.92c-23,3.17-39.62,3.88-49.88,3.88m14.87-146.32c-25.47,0-44.94,2.78-72.86,7.78l4.26,34.27c20.51-3.23,43.12-6.47,65.43-6.47,24.74,0,38.18,9.31,38.18,29.37v2.21L1911,316.68c-51.26,2.1-75.66,19.43-75.66,52.69,0,36.41,23,56.57,65,56.57,21.6,0,38.19,0,97.61-8.85V310.63c0-43.74-23.35-63.92-72.84-63.92M1728.71,388.09c-13.44,0-25.47.32-48.42-3.55V285.19a360.58,360.58,0,0,1,45.25-2.91c36.08,0,49.85,23.44,49.85,54.9,0,28.64-18.38,50.91-46.68,50.91m2.49-140c-35.37,0-70.73,4.58-91.58,8.15v231h40.67V419.58c22.64,2.83,36.4,2.83,54.1,2.83,48.44,0,81-35.71,81-86.31C1814.28,283,1785,248,1731.2,248m-131.94,5.29h-41V387.71a351.85,351.85,0,0,1-46.33,3.21c-25.45,0-38.19-13.07-38.19-39.6v-98h-41V360.87c0,46.67,28.64,65.06,70.36,65.06,32.54,0,77.81-5,96.19-8.85V253.33ZM1312.4,389.86c-31.48,0-52.7-21.58-52.7-54.14,0-31.8,21.22-52.75,52.7-52.75,31.1,0,52,20.95,52,52.75,0,32.56-20.88,54.14-52,54.14m0-143.89c-55.88,0-93.72,36-93.72,89.75,0,54.88,37.84,91.27,93.72,91.27,55.5,0,93.36-36.39,93.36-91.27,0-53.76-37.86-89.75-93.36-89.75M1210.5,248c-31.82,0-73.92,4.91-102.9,10.34V420.63h40.67V290.43c20.54-1.67,40.67-2.35,62.23-2.35V248Zm-138.29,34.24h-127v39.37h86.63V374c-22.26,6.35-49.49,10.58-70.7,10.58-50.23,0-83.82-33.91-83.82-85.28,0-49.77,37.13-83.36,93-83.36,14.15,0,38.2,3.14,71.08,9.19l8.46-39.6a350.67,350.67,0,0,0-82.7-10.62c-80.65,0-134.39,49.86-134.39,124.38,0,76.11,51.28,126.69,128.37,126.69,35,0,72.5-9.55,111-26.18V282.28Z" transform="translate(-0.1 0)"/></svg>