<svg id="Capa_1" data-name="Capa 1" xmlns="http://www.w3.org/2000/svg" viewBox="0 0 392.79 392.67"><defs><style>.cls-1,.cls-2{fill-rule:evenodd;}.cls-2{fill:#fff;}</style></defs><path class="cls-1" d="M30.66,12.55c4.76-.73,8.78,1.82,13.2,3.12,10.2,3,21.39,5.22,32.16,7.44,14.41,3,29.42,5.95,44.64,8.16,59.6,8.67,138.45,8.78,198.24-.24,14.42-2.17,29.76-5.38,44.4-8.4,9.91-2,21.68-4.57,31.92-7.68,3.78-1.14,7.5-2.91,10.56-2.64a10,10,0,0,1,9.12,9.84C415,25,413.07,29,412,32.47c-3,10-5.5,21.64-7.68,31.92-3.11,14.7-5.94,30.14-8.16,44.4-9.17,58.93-8.76,138-.24,197.52a644.1,644.1,0,0,0,13,66.24c.88,3.47,1.64,7.1,2.64,10.56s2.51,6.52,3.12,9.84a10,10,0,0,1-10.08,12c-2.84,0-6.76-1.81-10.32-2.88-10-3-21.53-5.52-31.92-7.68-14.35-3-29.63-6-44.4-8.16-58.52-8.67-138.08-9.2-197.52-.24-22.92,3.46-44.82,7.63-66,13-3.41.86-7,1.61-10.56,2.64-5.46,1.59-13,5.46-18.24,1a9.35,9.35,0,0,1-3.36-7.2c-.13-3.45,1.55-7.09,2.64-10.8,2.94-10,5.46-21.13,7.68-31.92C38.72,322.82,44.08,294,46,260.47c2.89-49.71,1.76-106.06-5-150.72a671.58,671.58,0,0,0-13.2-66c-.84-3.3-1.58-7-2.64-10.56-1.19-4-3.64-7.87-2.88-12.48A9.75,9.75,0,0,1,30.66,12.55Z" transform="translate(-22.12 -12.28)"/><path class="cls-2" d="M104.58,123.19H91.86c-.28,0-.26.38-.24.72,1.35,6.26-2.49,18.31,1.68,21.84,2.29,1.94,7.24,1.2,11.28,1.2H117.3c-1.29-6.66,2.42-18.44-1.68-22.32C113.44,122.56,108.63,123.19,104.58,123.19Z" transform="translate(-22.12 -12.28)"/><path class="cls-2" d="M187.86,158.71c-10.5.08-18.84,5-24.48,9.84-.13.12-.51,1.27-1,.48V146c0-5.84,1.37-18.48-1.68-21.36-2.23-2.11-7.07-1.44-11-1.44H137c-.28,0-.26.38-.24.72V241c0,5.12-.92,13.11,1,15.84,1.62,2.34,6,3.07,9.12,3.84a109.47,109.47,0,0,0,35.76,2.64c31.9-3.38,44.23-26.63,41.76-62.4C222.66,176.54,213.29,158.52,187.86,158.71Zm1.68,81.36c-6.38,5.52-16.86,5.83-27.12,2.64V196.39c0-2.19-.4-4.82,0-6.48.34-1.41,2.71-3.34,4.56-4.8,4.5-3.53,13.71-7.8,20.88-3.6,7.42,4.34,9.27,16.35,9.84,28.56C198.24,221.69,196.06,234.44,189.54,240.07Z" transform="translate(-22.12 -12.28)"/><path class="cls-2" d="M251.7,123.19H239.22c-.28,0-.26.38-.24.72,1.24,6.7-2.61,19.29,2.4,22.32,2.54,1.54,7.21.72,11.28.72h12c-1.34-6.58,2.59-19-1.92-22.56C260.38,122.54,255.8,123.19,251.7,123.19Z" transform="translate(-22.12 -12.28)"/><path class="cls-2" d="M316,197.83c-4.95-2.26-11.27-5-11.52-9.84-.41-8.05,9.27-8.78,17.52-8.16a111.76,111.76,0,0,1,20.4,3.6c-.82-7.62,1.78-14.11-1.68-18-2.27-2.55-9.13-3.41-13-4.08-19.74-3.47-37.65,1.07-44.64,13-4.77,8.11-5,23.39,1.44,32.16,4.14,5.59,11.89,10,19.44,13.44,6.91,3.15,18.15,6.88,18.48,14.64.41,9.73-11.29,10.42-20.88,9.6a159,159,0,0,1-21.12-3.6c.53,6.69-1.39,14.74,1.92,18.24,1.34,1.41,4,2,6.48,2.64,12.74,3.18,30.48,3.28,40.56-1,9.64-4.05,17.37-12.07,18.24-24.24C349.45,211.81,331.82,205,316,197.83Z" transform="translate(-22.12 -12.28)"/><path class="cls-2" d="M104.58,161.35H91.86c-.28,0-.26.38-.24.72v88.08c0,4.3-.29,9.38,1.68,11,2.26,1.91,7.36,1.2,11.28,1.2H117.3V173.83c0-4.46.2-9.26-1.68-11C113.5,160.78,108.5,161.35,104.58,161.35Z" transform="translate(-22.12 -12.28)"/><path class="cls-2" d="M252.18,161.35h-13c-.28,0-.26.38-.24.72v88.8c0,4.46-.2,8.88,2.16,10.56s7.46,1,11.28,1h12.24V174.31c0-4.18.26-9.5-1.44-11.28C261.09,160.78,256.23,161.35,252.18,161.35Z" transform="translate(-22.12 -12.28)"/><path class="cls-2" d="M200.82,315.43a11.34,11.34,0,0,0-6.48-.48,8.21,8.21,0,0,0-3.84,1.2c-4,2.82-5.05,13.64-1.68,18,2.22,2.87,8.45,3.68,11.76,2.16C207.86,333,206.88,318.28,200.82,315.43ZM197.94,333c-7.53,3-8.25-12.56-3.12-14.16C202.33,316.45,201.89,331.37,197.94,333Z" transform="translate(-22.12 -12.28)"/><path class="cls-2" d="M272.82,326.71c-.86-1.26-2.72-2-4.56-2.88-1.29-.6-4.51-1.35-3.84-3.84s6.26-1.08,8.16-.48c0-1.24.15-2.71-.24-3.6-4.25-1.58-9.86-1.26-11.76,1.44a6.8,6.8,0,0,0,.24,7.44c2.18,2.82,8.44,2.69,8.4,6,0,3.81-6.2,2.12-9.36,1.68v2.88c4,2.42,10.72,2,13-1.2A7.18,7.18,0,0,0,272.82,326.71Z" transform="translate(-22.12 -12.28)"/><path class="cls-2" d="M183.3,315.43c-1.15-.44-3-.16-4.56-.24-.16,2.72.32,6.08-.24,8.4h-7.68c-.13-2.67.28-5.88-.24-8.16-1.15-.44-3-.16-4.56-.24v11c0,3.53-.37,7.18.48,10.08,1,.51,2.93.12,4.32.24.16-3-.32-6.72.24-9.36h7.68c.12,3-.25,6.5.24,9.12,1.16.44,3,.16,4.56.24C183.39,329.59,183.86,322,183.3,315.43Z" transform="translate(-22.12 -12.28)"/><path class="cls-2" d="M223.14,315.19c-5.1.28-12.85-.59-16.32.48-.48.72-.13,2.27-.24,3.36h6v17c.89.79,3,.38,4.56.48.16-5.76-.32-12.16.24-17.52,1.82-.1,4.08.24,5.52-.24C223.39,318,223,316.36,223.14,315.19Z" transform="translate(-22.12 -12.28)"/><path class="cls-2" d="M230.58,327.19h8.16c.67-.69.46-2.26.48-3.6h-8.64c.16-1.44-.31-3.51.24-4.56,2.91-.13,6.37.29,8.88-.24.56-.8.51-2.21.48-3.6H226c.47,4.55-.61,12.53,0,16.8.88,6.09,9,5.39,14.64,3.84a10.15,10.15,0,0,0,.24-3.36C236.19,333.46,228.89,334.51,230.58,327.19Z" transform="translate(-22.12 -12.28)"/><path class="cls-2" d="M249.54,332.47c-2.9-2.51.41-13.61-1.2-17-1.08-.43-2.87-.17-4.32-.24.77,6-1.6,17.12,1.44,20.16,2.32,2.32,8.22,1.65,11.76.48a10.43,10.43,0,0,0,.24-3.36C254.61,332.64,251.42,334.09,249.54,332.47Z" transform="translate(-22.12 -12.28)"/></svg>