<svg id="Calque_1" data-name="Calque 1" xmlns="http://www.w3.org/2000/svg" viewBox="0 0 677.89 367.73"><path d="M427.23,265.93c-3,5.65-5.34,10.46-5,16.26s.65,11.53-2.15,16.88a7,7,0,0,1-2.71,3,44.62,44.62,0,0,0,2.67-6.67c.73-3.14,1.78-6.55,1.23-9.57-1.46-7.89,1.56-14.53,4.8-21.13,3.65-7.43,7.9-14.57,11.4-22.07.79-1.7.37-5.33-.9-6.37a60.71,60.71,0,0,0-12.48-7.85c-2.62-1.25-5.08-.09-6.74,2.95-2.18,4-5.05,7.6-7.58,11.39-1.44,2.17-2.9,2.32-5.3,1-20.35-10.73-42.13-13.4-64.74-11.16a10.8,10.8,0,0,0-1.51.44c6.74.6,13,.88,19.19,1.75A89.21,89.21,0,0,1,397,250c4.18,2.93,4.13,3.2.88,7.15a25.7,25.7,0,0,1-8.17,6.19c-4.5,2.43-8.25,6.24-12.35,9.43-1.69,1.32-3.28,3.05-5.21,3.73-14.75,5.2-28.3,23.66-28.5,39.14-.19,15.31,10.69,23.15,24.69,17,16.64-7.31,25.58-20.87,27.3-38.74.7-7.21-1.77-14-9.2-17.39-2.06-.95-4.46-1.16-7-1.77a21.2,21.2,0,0,1,11.31-8.32,21.94,21.94,0,0,0,10.74-7.69c2.94-3.87,6.41-7.34,9.39-11.18,3.48-4.47,6.83-9.06,9.94-13.8,1.12-1.71,2-1.92,3.6-1.08.55.29,1.13.53,1.69.81,8.55,4.29,9,6.05,3.95,14.11-2.1,3.36-4.05,6.82-5.85,10.35a88.58,88.58,0,0,0-5.27,11.58c-1.24,3.72-2.43,7.73-2.31,11.57a35.87,35.87,0,0,1-7.35,23.69c-6.15,8.28-11.23,17.43-16.08,26.57a36.19,36.19,0,0,1-15.28,14.92c-8.75,4.76-17.83,8.94-26.88,13.11a5.47,5.47,0,0,1-4.72-.73c-4-3.23-7.67-6.86-11.36-10.24-.57,3.72,3.08,6,5.58,9.53a51.87,51.87,0,0,1-5,2c-16.33,4.55-32.92,6.41-49.64,2.88-16.89-3.57-31.7-10.72-40.41-26.81a22,22,0,0,1-2.26-5.12c-.82-3.38-2.85-4.6-6.19-5.33-21.56-4.74-43.17-9.34-64.57-14.76a374.31,374.31,0,0,1-72.65-26.64C74,271.58,50,256.3,30.4,235.08,17,220.61,6.48,204.35,2.1,184.74c-4.2-18.79-2-36.9,5.83-54.44,9.84-21.94,25.93-38.6,44.56-53.1a261,261,0,0,1,64.67-36.57c19.1-7.56,38.76-13.84,58.42-19.84,24.53-7.49,49.84-11.62,75.21-14.94,17.68-2.31,35.54-3.4,53.34-4.69,25.34-1.84,50.69-1.31,76,.31a665,665,0,0,1,68.78,7.89,528.07,528.07,0,0,1,74.5,17.9c34.49,11.14,67.41,25.64,96.94,47,20.19,14.6,37.55,31.85,48.41,54.68q19,39.88-1.59,79.16c-11.84,22.62-29.72,39.53-50.33,54-20.78,14.56-43.28,25.83-66.86,35a510.1,510.1,0,0,1-92.19,25.74c-11.41,2.1-22.91,3.69-34.37,5.49a28.81,28.81,0,0,1-3.31,0c10.33-12.87,16.5-26.59,14.51-42.9A44.66,44.66,0,0,0,427.23,265.93Zm3.12-47.74c.54.35,1.46.11,2.21.11q95.58,0,191.14,0c1.31,0,2.62-.21,4.68-.38a32.68,32.68,0,0,0-2-3.64c-2.69-3.6-5.66-7-8.14-10.74-2.11-3.17-4.67-4.2-8.44-4.19q-126.87.22-253.73.26c-.87,0-1.91-.28-2.59.1-1.36.76-3.13,1.64-3.65,2.91A87.48,87.48,0,0,0,346.72,213c-1.32,5-1,5.31,4.17,5.31q33.92,0,67.84,0M159.76,96c2.06.13,3.64.31,5.22.31q51.92,0,103.84,0a39.21,39.21,0,0,1,8.14,1c3.73.81,6.3,3,6.79,7a8.63,8.63,0,0,1-5.59,8.85,34.67,34.67,0,0,1-10.17,2c-12.74.23-25.49.18-38.24,0-3.09,0-4.47,1.11-5.2,4-1.69,6.77-3.67,13.48-5.47,20.23-1.15,4.31-.76,4.8,3.69,4.81,11.75,0,23.49,0,35.24,0,4.41,0,8,1.53,9.94,6a10.6,10.6,0,0,1-1.85,11.87c-2.78,3.23-6.58,4.32-10.77,4.31-13.24,0-26.49,0-39.73,0-2.29,0-4.14.25-4.83,3-1.6,6.29-3.43,12.52-5.07,18.8-1.15,4.4-.83,4.8,3.62,4.81,21.74,0,43.48.13,65.22,0,15-.12,26.24-6.8,32.08-20.94,5.7-13.8,4.55-26.19-7.07-36.48-2.09-1.86-4.5-3.35-7-5.19,3.33-.93,6.46-1.7,9.51-2.7a31,31,0,0,0,21.25-30.71c-.39-12.69-10-24.69-23.12-27.49-6.38-1.37-13.11-1.49-19.68-1.51-36.12-.14-72.23,0-108.34-.15-3.79,0-5.73,1.15-6.52,4.9-.94,4.52-2.32,8.94-3.48,13.41C161.38,89.33,160.64,92.45,159.76,96ZM404,115.47a18.9,18.9,0,0,1,.28-2c3.77-13.58,7.5-27.18,11.35-40.74,1.19-4.2.8-5-3.42-5-7.12,0-14.24.07-21.36-.06-2.85,0-4.2,1-5,3.82-4.41,16.52-9,33-13.55,49.46-6.27,22.73-12.5,45.48-18.93,68.16-1,3.55.21,4.15,3.27,4.11,7.25-.09,14.5-.16,21.73,0,3.18.1,4.73-1,5.61-4.07,3.2-11.29,6.51-22.54,10.05-33.73a26.79,26.79,0,0,1,4.37-8.11c2.39-3.07,7.42-3.7,10.63-1.8,3.46,2,2.85,5.18,2.07,8.31-.86,3.39-1.75,6.76-2.63,10.14-2.17,8.34-4.31,16.68-6.52,25-.82,3.09.14,4.33,3.44,4.24,6.62-.16,13.25-.31,19.85.05,4.1.23,5.77-1.42,6.74-5.13,3-11.46,5.7-23.05,9.53-34.24,6-17.53-5.25-38-28.95-38.38C409.88,115.43,407.15,115.47,404,115.47Zm90.31,73.24c-1,3.15-.27,4.77,2.89,4.76,7.61,0,15.23.21,22.84,0a5,5,0,0,0,3.58-2.76c1.74-4.93,3.08-10,4.45-15.06q7.3-26.9,14.52-53.82c1-3.58.33-4.43-3.37-3.69-5.47,1.1-10.81,2.83-16.27,4a10.37,10.37,0,0,1-5.39-.51c-4.66-1.66-9.05-4.46-13.82-5.37-34.86-6.61-59.54,26.81-53.88,54.39,3.31,16.15,17.89,25.76,33.8,21.68C487,191.46,490.24,190.11,494.32,188.71ZM598.74,193c3.75,0,7.52.22,11.24-.12,1.4-.13,3.54-1.34,3.87-2.49,4.07-13.89,8.51-27.73,11.51-41.86,2.29-10.77-1.54-20.31-10.81-26.92-10.25-7.31-21.94-7.71-33.43-4.81-6.73,1.7-13,3.47-19.93,1.65-4-1.05-5.75.83-6.8,4.71-5.9,21.81-12,43.56-18.08,65.32-1,3.7-.53,4.46,3.4,4.5,7.24.06,14.49-.06,21.74.06,2.83,0,4.27-1,5.08-3.76q5-17.07,10.37-34a25.48,25.48,0,0,1,3.44-7,9.56,9.56,0,0,1,11.51-2.74c4,2.12,3,5.54,2.12,8.86q-4.54,16.41-9.18,32.8c-1.57,5.54-1.4,5.82,4.21,5.84C592.24,193,595.49,193,598.74,193ZM170.66,155.64h0c7.12,0,14.24.11,21.36-.1,1.28,0,3.4-1.15,3.65-2.14,2.78-11.06.14-28.56-14.94-35.28a39.44,39.44,0,0,0-28.91-1.3c-20.46,6.71-32.19,21.19-34.52,42.69-1.31,12,4.27,24.83,15.7,30.3,16.7,8,44.21,4.45,56.81-19.67,1.42-2.72.4-3.6-2.34-3.6-6.87,0-13.74,0-20.61-.21-3.1-.09-5.39.62-7.37,3.26-2.35,3.12-7.34,3.85-11,2.17-3.79-1.75-3.93-5.14-3.69-8.61a36,36,0,0,1,.71-3.67c.45-2.79,1.91-4,4.88-3.89C157.17,155.77,163.92,155.64,170.66,155.64ZM115,68c-3.88,0-7.75.11-11.62,0-2.74-.11-4,1.06-4.68,3.68-2.86,10.73-5.87,21.41-8.86,32.1-4.78,17.07-9.66,34.11-14.34,51.2a183.87,183.87,0,0,0-4.67,20c-1.17,7.46,2.58,13.41,9.65,15.83,3.85,1.32,8,1.83,12,2.6,2.65.51,4.17-.66,4.87-3.33,1.61-6.15,3.41-12.24,5.1-18.37q9.92-36.09,19.81-72.17Q126,86,129.73,72.45c.75-2.73.57-4.66-3.12-4.49C122.75,68.15,118.87,68,115,68ZM315.89,173.23c-.17,11.08,3.14,15.71,11,18.14a62.67,62.67,0,0,0,7.29,1.7c5.6,1,6.32.37,7.79-5.13,3.19-11.94,6.52-23.84,9.78-35.76,2.94-10.72,5.93-21.42,8.79-32.16,1.1-4.12.72-4.51-3.63-4.53-7,0-14,.13-21-.09-3.29-.1-4.59,1.24-5.41,4.27-3.21,11.8-6.72,23.52-10,35.31C318.64,161.94,317,169,315.89,173.23Zm-8.6,149.19c-4.24.9-8.08,2.12-12,2.46-11.93,1-18.14-6.95-16.26-16.7s7.47-17.45,15.54-23c6.73-4.61,14.11-7.69,22.49-3.79a3.07,3.07,0,0,0,2.5-.12c3.27-2,6.54-4.05,9.61-6.35,2.27-1.71,1.65-3.28-.81-4.45A34.89,34.89,0,0,0,311,267c-13,.82-23.63,6.86-32.8,15.55-9.61,9.11-15.39,20.16-15,33.84.29,9.59,5.21,16.37,14.24,19.42,6.37,2.16,12.81,1.8,19.2.19S306.49,330,307.29,322.42ZM313.38,334c3.43,0,6.17-.31,8.8.07,4.3.63,6.19-1.39,7.69-5.12,6.2-15.4,12.66-30.7,19-46,.84-2,1.67-4.06,2.81-6.85-3.79,0-6.87-.18-9.91.09A6,6,0,0,0,338,278a31.58,31.58,0,0,1-15.75,10.29c-2.75.81-4.15,2.43-4.33,6.09h11.66C324,307.91,318.85,320.55,313.38,334ZM336,85.08c-.24,9.18,7.51,16.87,17.23,17.11,9.31.22,17.63-7.26,17.92-16.13.3-9.14-7.48-16.74-17.32-16.94C344.14,68.94,336.21,76,336,85.08ZM313.9,249l-.3-.76a38.78,38.78,0,0,0-3.89,1c-17.17,6.15-32.6,15.14-45.26,28.42-8.76,9.19-15.42,19.6-17.7,32.39-2.86,16.11,3.73,32.13,21.21,41.69,15.65,8.56,32.54,9.82,49.88,7.94a15.63,15.63,0,0,0,2.79-1,22.57,22.57,0,0,0-3.53-.5,84.5,84.5,0,0,1-27.83-2.75c-11.58-3.18-22-8.49-29.31-18.33-9.73-13.16-8.76-27.17-1.56-41,8.57-16.47,22.08-28.17,37.78-37.52C301.93,255.11,308,252.18,313.9,249Zm-73.46-37.23a11.86,11.86,0,0,0,.68,2.11c.61.93,1.32,1.79,2,2.69.58-1.05,1.58-2.07,1.66-3.16a76.75,76.75,0,0,0,0-9.35c0-.85-.76-2.37-1.19-2.37a3.93,3.93,0,0,0-2.77,1.23,57.12,57.12,0,0,0-3.57,5.52c-1.5-2.25-2.55-4.07-3.85-5.69a3.07,3.07,0,0,0-2.38-1.19,2.88,2.88,0,0,0-1.49,2.21,101.76,101.76,0,0,0,0,10.48c0,.84,1.16,1.63,1.79,2.45a14.62,14.62,0,0,0,2-2.64c.34-.77.17-1.77.28-3.49C235.6,214.17,237.56,215.39,240.44,211.79Zm26.14-5.18.12-1.49c2.28-.13,4.59-.12,6.84-.46.79-.12,1.45-1.08,2.17-1.66-.66-.61-1.29-1.72-2-1.77a49.55,49.55,0,0,0-8.95,0,3.82,3.82,0,0,0-2.54,2.62,68.65,68.65,0,0,0-.11,10.44c.05.86,1.15,2.33,1.86,2.39a88.49,88.49,0,0,0,10,0c.5,0,1.46-1.14,1.35-1.41a2.77,2.77,0,0,0-1.6-1.6c-1.59-.26-3.24-.05-4.84-.23a11.93,11.93,0,0,1-2.61-1l.18-1.17a32.71,32.71,0,0,0,4.87-.57c.92-.23,1.66-1.13,2.47-1.73a8.69,8.69,0,0,0-2.44-1.8A31.8,31.8,0,0,0,266.58,206.61Zm25.06,1.91v1.12c0,3.06.78,5.66,4,6.87,2.93,1.1,5.77.85,7.94-1.41s2.6-5,.58-7.76A1.61,1.61,0,0,1,304,206c1.27-3.18-1.15-4.05-3.19-4.73C295.53,199.53,291.72,202.63,291.64,208.52ZM426,250.4l-.93-.38c-9,9.35-17.23,34-13.38,42.62.69-3.19,1.74-5.58,1.6-7.9-.43-7.57,2-14.12,5.78-20.49C421.7,259.83,423.7,255,426,250.4Zm-217.4-49.34V201a29.93,29.93,0,0,0-4.46.29,2.58,2.58,0,0,0-1.76,1.55,2.28,2.28,0,0,0,1.28,1.83c3.42.23,3,2.64,3,4.88a23.62,23.62,0,0,0,.17,4.84c.19.88,1.24,1.57,1.9,2.35.64-.79,1.69-1.52,1.83-2.38.31-2.08,0-4.24.32-6.32a6.65,6.65,0,0,1,1.52-3,21.66,21.66,0,0,1,2.65-2.4,23.61,23.61,0,0,0-3.5-1.55A11.76,11.76,0,0,0,208.59,201.06Z"/><path d="M356,319.85c2.6-13.46,7.05-24.79,16.33-33.75a10.27,10.27,0,0,1,2.15-1.48c4.6-2.6,7.37-1.37,7.5,3.95.25,9.91-3.17,18.88-8.7,27A34.64,34.64,0,0,1,366,323.5c-1.73,1.33-4.92,2.26-6.72,1.54S356.83,321.28,356,319.85Z"/><path d="M359.51,365.11l15.45-5.3C373,368,367.81,369.94,359.51,365.11Z"/><path d="M489.24,168.64c-3.07-.19-6.72-.86-8.7-4.73-2.47-4.8-1.05-9.34,1.53-13.46,3.76-6,13.27-9.32,20.14-7.58,2.39.61,3.39,1.48,2.58,4.13-1.71,5.6-3.11,11.29-4.71,16.92C499.22,167,495.42,168.69,489.24,168.64Z"/><path d="M151.74,142.56c2.5-6.48,8.59-9.49,13.75-7.59,2.53.94,3.35,2.74,3.09,5.24-.28,2.81-2.44,2.31-4.22,2.33C160.31,142.59,156.26,142.56,151.74,142.56Z"/></svg>