<svg id="Calque_1" data-name="Calque 1" xmlns="http://www.w3.org/2000/svg" viewBox="0 0 939.29 816.66"><defs><style>.cls-1{fill:none;}</style></defs><path d="M841.28,448c.31,181.53-146.74,329.21-328.17,329.59C331.16,778,183.79,631.13,183.23,448.9c-.56-181,146.48-329.64,326.19-329.83C693.83,118.88,841,264.71,841.28,448ZM570.44,509.16c47.84-8.1,85.73-31.33,111.93-71.82s32.67-84.76,19.24-131c-25.61-88-112-124.8-175.23-112.82V465.69H498.25v44c6.58,0,12.67.48,18.64-.13,7.63-.77,9.85,1.85,9.81,9.62-.33,58.32-.18,116.64-.18,175v10.5h43.92ZM383.73,191.52v7.85q0,229.1,0,458.19c0,29.81,17.73,47.55,47.37,47.68,24.4.11,48.79,0,73.19,0,2.51,0,5-.36,7.65-.56V661.12H427.51V191.52Z" transform="translate(-42.48 -119.07)"/><path d="M383.82,856.68v76H362.55V825.6c8.8,0,17.73-.39,26.58.3,2.07.16,4.63,3.69,5.63,6.21C403.48,854,411.89,876,420.41,898c.91,2.34,2,4.62,3.76,8.66,4.08-10.5,7.51-19.24,10.87-28,6.06-15.81,12.19-31.61,18-47.5,1.48-4,3.41-5.9,8-5.65,7.89.42,15.81.12,24.21.12V932.82H464V856l-1.64-.35c-2.07,5.25-4.19,10.48-6.18,15.76-7.07,18.83-14.41,37.57-21,56.58-2.12,6.14-6.15,5.57-10.56,5.31-4.58-.28-9.65,2-12.19-5.22-7.85-22.21-16.49-44.13-24.82-66.16-.72-1.89-1.48-3.76-2.22-5.64Z" transform="translate(-42.48 -119.07)"/><path d="M908.12,858V933.3c-6.48,0-12,.32-17.45-.2-1.56-.14-4.14-2.67-4.15-4.13-.24-34.13-.18-68.27-.18-103.37,7.78,0,14.89-.4,21.91.23,2.22.2,4.82,2.78,6.19,4.93,13.5,21.23,26.78,42.59,40.14,63.91,1.36,2.18,2.86,4.27,5.48,8.18V826.22h21.71V933.3c-7.06,0-13.95.52-20.69-.27-2.43-.28-5.1-3.3-6.66-5.72-13.58-21.17-26.94-42.49-40.39-63.75-1.35-2.14-2.9-4.17-4.35-6.26Z" transform="translate(-42.48 -119.07)"/><path d="M284.36,823c16.31.54,30.79,5.48,43.13,16.14,24.28,21,25.18,56.44,2.06,78.63-24.83,23.82-67.21,23.3-91.38-1.11-30-30.27-14.78-79.32,28.23-90.79C272.22,824.29,278.37,823.9,284.36,823Zm.41,93.58c22-.13,39.59-16.65,39.52-37.17-.08-20.84-18.28-37.81-40.21-37.5-21.75.3-39.6,17.1-39.74,37.4C244.19,899.74,262.58,916.68,284.77,916.55Z" transform="translate(-42.48 -119.07)"/><path d="M808.71,822.88c16,.86,30.27,5.82,42.27,16.43,26.35,23.3,24.78,62.72-3.85,83.12-23,16.42-47.81,17.41-72.63,4.05-19.71-10.6-31-32.06-28.51-51.93,2.94-23.44,19.39-42.17,43.2-48.55C795.52,824.3,802.19,823.89,808.71,822.88Zm-.9,93.67c22.08,0,39.67-16.36,39.75-36.9.09-20.89-17.84-37.86-39.91-37.77s-40.17,17.3-40,37.92C767.89,900.06,785.94,916.59,807.81,916.55Z" transform="translate(-42.48 -119.07)"/><path d="M562.79,935.74c-37.22-.63-64.88-29.09-60.83-63.38,2-16.55,11-29,24.58-38.12,22.79-15.31,55-14.34,76.68,2.46,17.71,13.74,25.42,32.11,20.5,54-5.36,23.79-22.23,37-45.26,42.85C573.37,934.79,568,935,562.79,935.74Zm.4-19.18c21.91,0,39.8-16.43,40-36.81.26-20.55-18-37.87-40-37.88s-40.2,17.19-40,37.84C523.39,900.1,541.24,916.55,563.19,916.56Z" transform="translate(-42.48 -119.07)"/><path d="M131.18,826.43c16.62,0,32.58-1.26,48.25.33,17.11,1.75,28.77,14.56,29.81,29.15,1.25,17.46-8,30.57-25.61,36.32-1.17.38-2.33.84-4.62,1.68l31.71,39.4c-9.12,0-16.43.39-23.65-.23-2.32-.2-4.89-2.69-6.53-4.78-8.95-11.37-17.64-22.94-28.15-34v38.61H131.18Zm21.67,50.45c4.36,0,8.26.06,12.15,0a53.35,53.35,0,0,0,8.68-.57c8.33-1.59,13.47-7.37,13.75-15.07s-4.21-14.36-12.59-15.9c-7.05-1.29-14.42-.89-22-1.26Z" transform="translate(-42.48 -119.07)"/><path d="M64.15,892.89v39.74H42.48V827c16.39,0,32.59-1.48,48.38.4,17.28,2.06,27.26,15.69,26.88,32.07s-10.81,28.48-28.08,31.34C81.64,892.12,73.4,892.17,64.15,892.89Zm.41-49.34v30.64c7.88-1,15.23-1.26,22.27-2.91,6-1.41,9-6.33,9-12.53s-2.94-11.12-9-12.45C79.71,844.75,72.38,844.46,64.56,843.55Z" transform="translate(-42.48 -119.07)"/><path d="M629.7,844.32V826h64.8V844H673.28v88.79H651.47V844.32Z" transform="translate(-42.48 -119.07)"/><path d="M728.48,932.94H707.82V826.18h20.66Z" transform="translate(-42.48 -119.07)"/><path class="cls-1" d="M570.44,509.16V704.67H526.52v-10.5c0-58.32-.15-116.64.18-175,0-7.77-2.18-10.39-9.81-9.62-6,.61-12.06.13-18.64.13v-44h28.13V193.56c63.27-12,149.62,24.81,175.23,112.82,13.43,46.2,7,90.44-19.24,131S618.28,501.06,570.44,509.16Zm.35-45.38c56.35-10,97.08-63.27,93.11-120.81-3.6-52-49.19-103.34-93.11-104.5Z" transform="translate(-42.48 -119.07)"/><path class="cls-1" d="M383.73,191.52h43.78v469.6H512v43.56c-2.62.2-5.14.55-7.65.56-24.4,0-48.79.11-73.19,0-29.64-.13-47.35-17.87-47.37-47.68q-.08-229.09,0-458.19Z" transform="translate(-42.48 -119.07)"/><path class="cls-1" d="M284.77,916.55c-22.19.13-40.58-16.81-40.43-37.27.14-20.3,18-37.1,39.74-37.4,21.93-.31,40.13,16.66,40.21,37.5C324.36,899.9,306.81,916.42,284.77,916.55Z" transform="translate(-42.48 -119.07)"/><path class="cls-1" d="M807.81,916.55c-21.87,0-39.92-16.49-40.12-36.75-.21-20.62,17.94-37.84,40-37.92s40,16.88,39.91,37.77C847.48,900.19,829.89,916.51,807.81,916.55Z" transform="translate(-42.48 -119.07)"/><path class="cls-1" d="M563.19,916.56c-22,0-39.8-16.46-40-36.85-.19-20.65,18-37.86,40-37.84s40.27,17.33,40,37.88C603,900.13,585.1,916.56,563.19,916.56Z" transform="translate(-42.48 -119.07)"/><path class="cls-1" d="M152.85,876.88V844.06c7.57.37,14.94,0,22,1.26,8.38,1.54,12.87,8.09,12.59,15.9S182,874.7,173.68,876.29a53.35,53.35,0,0,1-8.68.57C161.11,876.94,157.21,876.88,152.85,876.88Z" transform="translate(-42.48 -119.07)"/><path class="cls-1" d="M64.56,843.55c7.82.91,15.15,1.2,22.21,2.75,6.08,1.33,9,6.32,9,12.45s-3,11.12-9,12.53c-7,1.65-14.39,2-22.27,2.91Z" transform="translate(-42.48 -119.07)"/><path d="M570.79,463.78V238.47C614.71,239.63,660.3,291,663.9,343,667.87,400.51,627.14,453.76,570.79,463.78Z" transform="translate(-42.48 -119.07)"/></svg>